<?xml version="1.0" encoding="UTF-8"?>
<svg version="1.1" viewBox="0 0 1600 1600" width="1280" height="1280" xmlns="http://www.w3.org/2000/svg">
<path transform="translate(522,65)" d="m0 0h41l18 2 22 5 16 6 21 11 16 11 12 9 12 11 8 8 14 19 11 19 7 15 8 22 4 17 2 14 1 13v21l-2 21-3 16-7 20-7 17-10 16-11 16-8 10-9 10-9 6-11 7 5 4 14 9 16 11 10 8 13 11 22 22 11 14 11 16 13 24 8 17 4 13 5 24 2 8 2-1 8-20 6-16 8-17 9-19 16-25 7-9 11-14 7-8 8-7 8-8 18-13 18-12 13-8-2-4-14-13v-2h-2l-9-11-8-10-13-20-8-16-9-21-5-16-4-22-1-10v-21l4-24 5-20 8-22 10-20 10-15 8-11 11-12 5-6 8-7 14-11 19-11 23-11 20-6 27-4h42l23 3 19 5 15 6 16 8 14 9 13 10 12 11 14 14 14 19 10 17 10 23 6 20 4 19 2 19v17l-2 21-6 24-6 18-9 19-9 15-7 9-13 16-7 7-15 11-2 3 7 6 19 14 11 8 14 12 10 9 6 3 8-1 18-5 23-4 18-2h28l26 3 19 4 23 8 24 12 17 11 13 10 13 11 10 9 1 3h2l9 11 10 13 8 13 7 12 10 23 8 24 4 19 2 17 1 18v12l-1 17-4 25-7 23-8 20-11 21-8 12-13 17-11 12-5 5-10 9-20 12 2 4 18 12 17 12 16 12 12 11 8 7 14 14 7 8 12 15 10 15 9 15 8 15 9 20 12 35 7 24 2-1v206l-12 9-10 7-14 8-23 9-29 9-25 6-38 7-38 5-40 3-20 1h-91l-57-4-38-5-36-7-24-6-17-6v102l-1 41-2 12-6 8-14 10-16 8-20 8-29 9-30 7-34 6-30 4-36 3-41 2h-71l-39-2-36-3-29-4-36-7-31-8-28-10-21-10-12-8-5-4v-2h-2l-6-8-2-13-1-63v-77l-12 3-27 7-37 7-35 5-33 3-38 2h-90l-49-3-42-5-42-8-29-8-20-7-18-8-15-8-16-11-7-5v-214l2 1 12-37 11-27 13-25 14-22 9-13 12-14 4-5 17-17 8-7 12-10 16-11 26-16 5-3-5-6-15-11-10-9-10-11-11-14-11-16-9-16-8-15-9-24-6-22-3-21v-37l3-25 4-19 10-28 12-25 12-18 13-17 12-13 12-12 13-10 13-9 14-8 19-9 20-7 22-5 19-3 11-1h30l28 3 29 7 5-1 8-9 17-13 12-9 17-12 6-4h2v-2l-4-2-13-11-7-8-10-12-10-15-9-16-8-16-6-15-6-22-2-12v-41l4-27 5-17 9-22 9-16 10-15 14-17 16-16 18-13 21-12 20-9 18-5 18-3zm8 63-19 3-17 6-19 10-14 11-10 9-10 12-9 15-8 18-6 21-2 12v27l4 18 7 18 8 15 11 14 4 5h2l2 4 12 11 10 7 17 9 16 6 18 3h26l19-3 20-6 23-12 11-9 10-9 9-10 10-15 8-19 5-17 2-18v-17l-2-19-3-12-9-21-8-14-8-10-9-10-14-11-18-10-19-7-19-4-11-1zm504 0-17 3-12 4-15 7-12 7-13 11-8 7-13 16-8 14-8 19-4 19-1 7v34l4 19 5 12 8 14 10 14 14 15 11 9 13 8 16 8 17 5 13 2h24l20-3 17-5 21-10 14-10 14-13 9-11 8-13 7-14 6-24 1-8v-35l-3-16-7-20-9-16-11-14-14-14-15-10-16-8-21-7-21-3zm-508 320-21 3-21 6-19 7-22 12-18 10v2h-2l2 5 26 26 9 11 13 17 11 19 10 21 8 22 5 21 2 13 1 12v34l-3 26-6 24-10 25-12 23-8 12-9 12-11 13-6 7-14 11-13 8-6 4v3l18 12 17 12 19 14 13 12 8 7 14 14 7 8 12 15 14 21 14 27 8 19 10 33 4 21 3 22 2 22 2 11h3v-2l4-2 12-12 7-8 13-12 11-9 16-11 15-10 14-9 2-3-10-9-10-6-12-11-10-11-9-11-11-16-12-21-8-17-7-19-5-19-3-19-1-10v-28l2-22 4-20 5-16 9-22 8-16 9-15 21-27 4-4v-2h2l6-7 11-9 13-10 15-10 19-10 26-11 5-4v-16l-4-28-5-20-8-21-8-17-10-17-10-13-9-10-4-5-8-7-13-10-14-9-17-9-21-8-25-6-24-3zm506 0-22 3-21 6-18 6-19 10-12 8-16 12-6 5v2l-4 2-10 11-12 16-14 24-9 23-6 20-5 29-1 9v9l9 6 26 11 22 12 12 8 13 10 13 11 7 6 7 8 13 16 10 15 10 18 10 22 7 22 5 25 1 11v34l-3 28-6 24-7 19-9 19-9 16-11 15-8 10-9 10-3 3v2l-4 2-8 7-11 7-9 6-1 3 16 11 25 17 12 9 14 12 9 9 9 11 11 11 2-4 4-38 6-38 10-30 11-24 10-19 15-24 11-14 8-9v-2h2l7-8 11-11 8-7 12-10 16-11 32-20v-3l-8-8-12-8-9-9-5-4-18-22-10-15-10-18-9-19-8-22-5-21-2-14-1-15v-17l2-26 5-25 7-21 9-21 9-16 10-15 18-22 6-6v-2h2v-2l4-2 12-12-1-4-11-9-15-9-16-8-20-8-24-6-23-3zm-758 64-22 3-20 6-16 7-11 6-11 8-16 13-9 9-13 17-9 15-6 14-8 24-3 14-2 17v19l3 20 4 15 8 21 9 17 10 13 9 10 14 14 18 13 23 12 24 8 21 3h26l30-5 16-5 17-7 13-7 16-12 12-11 11-12 10-14 9-15 8-22 5-20 2-16v-26l-3-22-6-19-8-19-10-17-10-13-9-10-11-10-15-11-16-9-21-8-19-5-13-2-12-1zm1025 0-21 3-20 6-18 7-18 11-17 13-15 15-12 17-10 17-10 27-5 22-1 8v29l4 22 8 24 9 19 12 17 10 11 6 7 8 7 18 13 17 9 17 7 14 4 20 3h26l20-3 21-5 24-10 14-8 13-10 12-11 11-12 10-14 9-15 9-27 4-16 2-20v-11l-2-23-4-19-6-17-8-17-10-16-11-14-10-10-17-13-22-12-15-6-21-6-12-2-11-1zm-515 192-19 3-18 5-19 8-14 8-13 10-13 11-7 7-13 17-8 13-6 12-10 31-3 16-1 9v24l3 18 6 21 6 15 9 17 10 13 9 10 7 8h2v2l17 13 17 10 20 9 22 6 15 2h27l30-5 21-7 13-6 11-6 16-12 12-11 12-13 10-14 9-16 8-24 4-16 2-17v-21l-2-19-5-21-8-20-9-17-10-14-12-14-14-12-15-10-17-9-19-7-21-5-16-2zm-514 192-28 4-22 6-20 7-16 8-20 12-12 9-11 9-21 21-9 11-8 11-12 20-11 23-6 20-6 28-3 28-1 14-1 27-1 62 1 18 3 8 6 5 14 6 26 8 23 5 33 5 36 4 49 3h75l43-3 35-4 36-6 40-10 20-7 9-5v-82l-1-41-3-30-4-25-5-18-6-16-9-19-11-18-10-14-11-12-9-10-11-10-19-14-15-9-23-12-20-7-28-7-25-3zm1023 0-28 4-31 9-21 9-27 16-14 11-12 11-7 6-7 8-10 11-13 19-14 25-6 15-7 21-5 27-3 32-1 26v91l3 7 12 6 28 9 24 6 31 5 33 4 40 3 22 1h70l44-3 42-5 29-5 34-8 19-6 14-7 2-3 1-8v-53l-1-61-2-21-4-28-6-21-6-18-8-16-8-15-11-16-9-11-16-17-8-7-13-10-15-10-18-10-17-8-18-6-31-7-19-2zm-512 192-23 3-20 5-24 8-17 8-22 14-12 9-13 11-18 18-7 8-6 8-10 15-9 16-8 18-8 24-5 26-3 33-1 26-1 46v35l2 14 7 6 15 6 27 8 23 5 42 6 29 3 29 2 22 1h64l45-3 37-4 32-5 32-7 24-7 13-5 6-5v-99l-1-28-3-33-4-20-8-24-12-25-11-19-12-16-8-10h-2l-2-4-8-8-8-7-17-13-18-11-23-12-20-7-28-7-25-3z" fill="#FFDB6E"/>
<path transform="translate(1597,1044)" d="m0 0h3v7l-3-4z" fill="#FFDB6E"/>
</svg>
