<?xml version="1.0" encoding="UTF-8"?>
<svg version="1.1" viewBox="0 0 1600 1600" width="1280" height="1280" xmlns="http://www.w3.org/2000/svg">
    <path transform="translate(12)" d="m0 0h1572l1 6 4 5 8 4 3 1v1308l-10 8-8 8-8 2-344 1h-164l-9-1-2-2-1-5v-20l1-29 2-6 1-1h461l15-1v-58l-1-178v-427l1-498v-52l-2-1-562-1h-570l-336 1 1 12-1 1067-1 136h478l2 2v60l-1 1h-516l-9-2-8-7-4-6-5-3v-1308l11-9 2-5z" fill="#FFDB6E"/>
    <path transform="translate(793,764)" d="m0 0 18 1 11 3 12 5 12 8 10 9 8 8 8 10 4 2h7l7-3 5-1h23l21 5 17 8 12 11 8 9 10 18 4 11 3 16 1 22 4 6 10 8 14 9 10 10 9 12 9 16 4 10 1 4v24l-3 12-13 24-6 9-9 7-7 6-2 4 1 9 5 17 2 11v24l-4 18-13 22-9 8-4 8-1 268-1 104-1 22-2 7-6 3h-3v2h-3l1 10h-24l-16-9-11-7-32-19-26-15-29-17-21-13-16-10-4 1-19 10-16 10-19 12-17 10-25 15-25 14-22 12 2 6h-39l1-4h5l-7-8-3-2v-2h-2l-3-5-1-7-1-32-1-109v-237l-3-5-15-8-10-9-5-4-6-8-7-14-4-21v-21l4-18 6-13v-7l-6-10-7-9-9-17-5-15-3-12v-17l4-13 6-14 10-16h2l2-4 4-4h2v-2l10-7 14-8 4-6 2-10v-17l5-17 6-13 5-10 8-11 7-7 13-9 16-8 13-4 13-2 13 1 15 4 6 1 6-5 7-8 10-9 8-7 10-7 10-5 15-4z" fill="#FFDB6E"/>
    <path transform="translate(460,446)" d="m0 0h769l49 1 2 6-1 55-2 2-42 1-902 1-12-1-2-2-1-20 1-38 2-4z" fill="#FFDB6E"/>
    <path transform="translate(477,606)" d="m0 0h748l53 1 2 4-1 57-3 2-96 1h-857l-4-3v-54l1-7z" fill="#FFDB6E"/>
    <path transform="translate(322,287)" d="m0 0h956l2 2v24l-1 35-1 2-4 1-942 1-11-1-2-2-1-9v-27l1-22 1-3z" fill="#FFDB6E"/>
    <path transform="translate(1595)" d="m0 0h5v6l-5-5z" fill="#FFDB6E"/>
    <path transform="translate(0)" d="m0 0h7l-2 2h-5z" fill="#FFDB6E"/>
    <path transform="translate(938,1598)" d="m0 0h4v2h-4z" fill="#FFDB6E"/>
    <path transform="translate(1599,1325)" d="m0 0" fill="#FFDB6E"/>
</svg>
