<?xml version="1.0" encoding="UTF-8"?>
<svg version="1.1" viewBox="0 0 1600 1600" width="1280" height="1280" xmlns="http://www.w3.org/2000/svg">
<path transform="translate(1253,159)" d="m0 0h59l16 4 9 6 3 3 2 8 1 17v154l59 3 17 3 16 8 10 9 9 9 10 15 4 11 1 5 1 15 1 748-4-2-23-23-7-8-8-8-7-8-9-9-6-7v-3l-4-1-1-2 3 1 1-651-1-35-1-3-12-2-32-2h-14l-2 1v633l-6-4v-2l-4-2-5-4-7-8-26-26v-2l-3-1v-2l-4-2-8-8-3-6v-675l1-84-82 5-58 5-49 6-29 5-30 7-32 8-35 11-28 11-20 9-24 12-17 10-17 11-16 11-8 7-1 2-1 12-1 73v225l-6-1-16-7-36-13-5-6-1-281-3-6-13-10-18-12-20-12-24-13-25-11-27-10-37-12-40-10-34-7-42-6-37-4-34-3-70-4-24-1v809h47l42 1 44 2 54 4 56 6 46 7 55 11 39 10 26 8 36 14 6 2-1-4v-80l1-38 6 1 9 11 9 10 10 11 7 8 9 10 7 8 3 7 1 40v10l1 4 8-1 26-13 9 1 10 6 27 27 14 10 2 4-5 4-23 9-25 9-18 8-23 11-13 8-16 6-9-1-13-5-29-15-28-12-36-12-41-11-26-6-31-6-50-7-48-5-48-3-23-1-133-3-18-2-7-3-4-5-4-13-2-22-1-55v-581h-35l-22 2-3 1-1 2-1 18-1 60-1 237v117l1 383 1 9 16 2 64 1h406l213-1h102l45 1 10 3 6 4 10 9 7 8 16 15 13 11 6 7-2 4-6 1h-430l-450-1-29-2-14-4-12-7-11-9-9-10-8-13-4-12-2-20-1-60v-714l1-41 3-12 6-11 8-10 5-5 10-9 13-8 11-4 12-2 12-1 29-1 15-1 1-2 1-156 2-15 5-10 7-6 5-2 6-1 35-1 60 1 46 2 49 4 46 6 48 9 39 9 29 8 35 12 29 12 34 16 22 12 14 9 15 10 16 12 5 3 4-1 7-6 5-5 10-7 18-12 18-11 27-14 21-10 37-14 25-8 37-10 42-9 49-8 44-5 41-3z" fill="#FFDB6E" />
<path transform="translate(767,699)" d="m0 0 11 1 25 7 38 13 15 5 45 16 19 7 35 14 17 9 16 12 8 7 68 68v2l4 2 9 10 7 6 7 8 5 4 6 7 6 5 5 6 7 6 6 7 6 5 6 7 6 5v2l4 2 6 7 8 7 6 6v2l4 2 62 62v2h2l5 6 13 13 6 5 7 8 5 4 7 8 5 4 5 6 13 13 6 5 6 7 8 7 36 36 7 8 26 26 5 4 94 94 7 8 11 11 9 11 9 13 10 18 16 26 11 21 6 18 2 9v20l-4 16-4 10-9 14-11 14-7 7-16 11-11 5-14 4-13 2h-14l-19-3-17-6-13-7-18-13-2-1v-2l-6 1-15-6-11-7-10-9-8-7-25-25-4-3v-2l-3-1-5-5v-2l-4-2-8-8v-2l-4-2-456-456-7-8-7-7-9-13-8-16-10-23-22-60-10-28-10-29-10-28-1-4v-14l10-16 5-6zm81 98-3 1-2 8 1 9 5 21 5 12 8 16 4 6 4 1 14-9 14-10 10-11 10-15 1-3-10-7-10-5-23-9-22-5zm123 63-2 1-1 27-3 14-6 11-9 4-13 5h-33l6 9 12 13 36 36h2l2 4h2v2l8 7 147 147 3 4h2v2l8 7 2 3h2l2 4 12 11 142 142 2 3h2l1 3 8 5 4-2 11-14 8-7 10-9 16-17 10-11 6-8-6-7-10-9-13-13-7-8-7-7h-2l-2-4-12-12h-2l-2-4-8-8h-2l-1-3-6-5-6-7-8-7-4-5-8-7-39-39-5-6-8-7-5-6h-2l-2-4-5-4-7-8-160-160h-2l-1-3-8-7-32-32-5-6-9-7zm444 447-5 3-5 4-4 6-2 4-4 2-12 12v2l-4 2-12 12-11 8-3 2v3l-3 1 6 9 15 16 13 13 7 1 14-16 10-9 7-8 2-1v-2h2v-2h2l7-8 11-11 6-7 1-4-8-10-8-6-7-8-8-6-4-2zm74 96-8 4-4 3v2l-4 2-7 8-15 15-2 4 2 9 6 4 18 4 7-1 12-6 7-8 3-8 1-9-3-17-5-6z" fill="#FFDB6E" />
<path transform="translate(1385,1092)" d="m0 0 4 2 6 5h-3l-7-6z" fill="#FFDB6E" />
<path transform="translate(1380,1088)" d="m0 0 3 1h-3z" fill="#FFDB6E" />
<path transform="translate(1376,1085)" d="m0 0 2 1z" fill="#FFDB6E" />
<path transform="translate(975,871)" d="m0 0 2 1z" fill="#FFDB6E" />
<path transform="translate(1396,1101)" d="m0 0" fill="#FFDB6E" />
<path transform="translate(1395,1100)" d="m0 0" fill="#FFDB6E" />
<path transform="translate(1384,1091)" d="m0 0" fill="#FFDB6E" />
<path transform="translate(1383,1090)" d="m0 0" fill="#FFDB6E" />
<path transform="translate(1379,1087)" d="m0 0" fill="#FFDB6E" />
<path transform="translate(1378,1086)" d="m0 0" fill="#FFDB6E" />
<path transform="translate(977,872)" d="m0 0" fill="#FFDB6E" />
</svg>
