<?xml version="1.0" encoding="UTF-8"?>
<svg version="1.1" viewBox="0 0 1600 1600" width="1280" height="1280" xmlns="http://www.w3.org/2000/svg">
<path transform="translate(786,49)" d="m0 0h22l24 2 21 5 16 7 11 6 16 12 10 10 11 15 9 17 7 21 5 28 6 52 5 22 8 17 10 13 5 6 10 8 11 9 10 8 13 12 8 8 9 13 10 19 5 14 4 14 1 8v25l-3 16-6 15-8 16-8 12-10 13-9 14-7 16-3 11v19l5 14 8 15 9 10 11 11 10 8 13 12 9 9 10 13 12 21 10 25 4 21v38l-3 17-5 15-12 23-7 10-7 9-2 3h-2v2l-8 7-8 8-15 10-19 9-16 5-25 5-16 2-15 1h-115v346l-2 3-4 1h-42l-4-2-1-22v-122l1-205-18 1h-108l-23-2-19-4-19-7-15-8-19-13-13-12-9-9-7-10-9-15-8-18-4-14-3-14-1-9v-22l3-21 4-14 6-15 11-19 12-16 8-10h2v-2l8-7 10-9 11-9 8-7 8-10 9-20 2-15-1-13-4-13-8-16-9-14-10-14-8-14-8-18-5-16-1-5v-27l4-20 6-17 7-14 9-12 12-14 12-11 11-9 9-7h2v-2l11-9 11-14 8-16 4-12 3-17 5-51 4-22 6-19 8-16 9-14 12-13 11-10 11-7 12-7 16-6 25-5zm1 51-19 3-14 5-11 6-10 8-9 12-6 13-4 18-4 27-7 51-3 14-6 15-11 21-8 11-12 14-13 12-12 8-10 9-10 8-7 8-7 11-5 13-2 8v17l3 12 8 17 16 24 7 11 8 16 8 20 3 11 1 9v24l-4 17-6 15-8 16-8 11-10 13-8 8-13 10-7 7-9 7-9 10-9 14-6 15-3 11-1 7v27l4 17 5 13 9 13 8 9 13 10 12 7 12 5 18 4 15 1 89 1h36l2-7 2-47-3-10-6-9-25-25-5-6h-2l-2-4-40-40h-2l-2-4-2-6 2-8h2v-2l5-2 7-6 7-11 5-2 12 6 10 9 20 20 10 9 7 6h1v-144l-3-9-9-10-19-19-7-8-19-19-8-7-33-33-8-7-8-9-1-6 15-15 6-5 4-6 5-3 7 1 8 6 9 9 1 2h2l2 4 8 8 8 7 4 5 8 7 26 26h3l-1-14-1-246 51 1v127l-1 34 4-2 10-9 13-13 5-3 6 1 6 5 7 8 13 14 1 4-4 8-3 3v2l-4 2-17 16-12 12-4 5-8 7-8 8-2 6-1 18-1 57-1 22 7-3 13-10 32-32 6-3 7 1 8 9 7 8 6 5 7 8-1 5-2 1v2l-3 1-18 18-4 3v2l-4 2v2l-4 2v2l-4 2-15 15-8 7-17 17-7 6-4 9-1 123 4-2 9-7 8-7 7-8 17-17 7-8 5-4 5-6 4-3 9 1 5 5 6 7h2v2l10 8 5 7-1 5-6 7-8 7-40 40-7 8-12 12v2h-2l-7 8-16 16-6 10v2l2 1 10 1 27 1h102l16-3 15-5 11-6 12-9 10-9 10-13 4-9 4-13 2-8 1-12v-18l-3-17-6-16-7-12-9-11-14-13-8-7-11-10h-2v-2h-2l-2-4-9-10-11-17-9-19-6-20-2-15 2-24 5-19 5-12 6-11 9-13 14-19 8-15 4-12 2-14-1-10-5-16-7-14-7-9-8-8-14-11-17-14-13-13-11-15-7-11-12-26-5-19-4-26-3-28-2-17-5-21-5-12-7-10-9-9-11-7-11-5-16-4-8-1z" fill="#FFDB6E"/>
<path transform="translate(369,774)" d="m0 0h11l13 2 16 6 11 7 11 10 9 14 5 13 6 23v2l26 5 18 5 20 9 14 8 17 12 14 12 10 9 9 11 8 10 9 15 8 16 9 24 5 15 5 16 2 3 23 7 16 8 8 6 12 12 8 13 4 8 3 9 1 6v21l-5 16-8 14-8 10-9 9-10 6-30 9-4 4-1 2v34l2 9 5 5 13 10 12 11 7 10 5 10 4 17 1 6v14l-3 13-9 13-10 13-10 10-18 9-13 29-7 16-11 18-10 14-9 12-9 10-7 8-12 12-14 11-15 11-21 13-20 9-27 9-29 7-19 3-11 1h-38l-24-3-25-6-24-8-20-9-17-9-15-10-11-8-11-10-8-7-4-4v-2l-3-1-9-11-8-9-13-18-14-24-11-23-8-16-3-5-14-8-6-4-13-13-9-14-5-15-1-5v-21l5-17 6-11 6-9 3-1v-2l10-8 11-8 5-5 1-4v-44l-7-2-12-2-11-4-10-6-10-9-9-10-8-14-5-14-1-6v-18l3-15 8-16 6-9 7-8 9-7 12-6 16-4 13-3 3-4 3-17 6-21 10-23 8-14 8-12 9-12 9-11h2v-2l8-7 13-10 19-13 22-12 15-6 15-4 20-4 5-2 4-24 4-11 7-11 7-8 13-10 12-6 14-4zm-3 52-8 3-5 6-2 13-1 16-1 83-4 2h-42l-2-1-1-3v-38l-1-7-17 5-20 8-15 8-11 8-11 9-9 8-9 11-10 15-8 14-9 21-5 13v2l11 1 63 1h292l32-1 1-2-5-13-11-24-7-14-9-13-9-11-14-13-13-9-16-9-23-10-14-6h-2l-2 42-1 8h-40l-7-1-1-4-1-61v-38l-4-11-6-5-9-3zm-49 248-199 1-8 2-5 5-4 14v10l3 10 5 4 12 3 13 1 175 1h159l153-1 12-2 8-4 1-3h2l3-6v-19l-5-10-6-4-3-1-24-1zm-140 101-3 3v91l-2 6-5 1-4-1h-17l-13 2-8 5-1 6 2 13 6 9 10 7 16 8 9 6h2l2 4 5 15 7 20 10 22 8 13 10 14 9 10 7 8 7 7 11 9 12 9 15 9 15 8 20 8 17 5 23 4 19 2h17l22-2 22-4 27-9 16-8 16-9 17-12 13-11 16-16 12-16 8-13 7-12 11-27 9-26 2-4 19-8 14-8 8-7 3-10-3-12-3-5-5-2-7-1-28-1-4-2v-97l-1-1z" fill="#FFDB6E"/>
<path transform="translate(1242,874)" d="m0 0h14l25 7 54 14 39 11 26 7 72 20 35 9 39 12 3 2 1 3v110l-1 62-2 41-4 34-7 34-5 20-7 21-13 33-9 19-13 23-11 18-26 36h-2l-2 4-9 11-12 13-18 18-8 7-9 8-16 12-17 12-21 14-21 12-21 11-24 10-13 5-5 1h-11l-17-5-24-11-20-10-22-13-27-18-17-13-15-13-10-9-25-25-7-8-9-10-11-14-12-16-16-25-12-22-8-16-9-20-9-24-10-32-6-26-6-36-3-39v-185l4-4 11-4 70-18 27-8 64-18 41-11 45-12 24-7zm2 52-30 8-65 18-48 13-92 25-10 4 1 143 2 33 3 25 5 25 8 28 8 24 12 28 12 23 12 20 11 16 11 14 9 11 11 12 10 11h2l2 4h2v2l8 7 12 11 14 11 15 11 12 8 13 8 21 12 21 10 11 4 9-1 21-10 16-8 18-10 13-9 14-10 13-10 11-9 13-12 8-7 15-15 7-8 1-3h2l9-12 11-15 13-20 10-17 11-23 9-21 12-36 6-28 5-32 3-39 1-20 2-106v-20l-6-3-48-12-64-17-52-15-49-13-27-8z" fill="#FFDB6E"/>
<path transform="translate(1009,184)" d="m0 0 9 2 30 12 26 11 25 12 22 12 20 12 19 12 12 9 10 7 19 14 13 11 10 8 10 9 8 7 6 5v2l4 2 20 20 7 8 11 12 9 11 11 13 15 20 12 17 14 22 8 13 14 25 17 34 14 33 14 39 10 36 8 32 6 35 5 41 2 28v46l-3 57-2 4-7 1-26-4-12-2-4-4v-23l2-31v-38l-3-42-5-35-7-36-12-44-11-32-11-27-11-24-13-26-13-23-10-15-10-16-13-17-10-13-9-11-11-13-9-11-31-31-8-7-10-9-11-9-14-11-19-14-24-16-25-15-20-11-28-13-38-16-13-4-6-7 2-10 9-27 3-5z" fill="#FFDB6E"/>
<path transform="translate(583,185)" d="m0 0h6l6 7 5 11 6 19v7l-5 5-30 11-33 15-25 13-24 14-18 11-10 7-16 11-16 12-8 7-9 7-15 14-8 7-23 23-7 8-10 11-9 11-11 13-13 17-10 15-17 26-14 25-6 10-11 23-8 17-13 33-12 35-10 41-6 28-5 39-2 23-1 19v33l2 24v7l-4 3-15 2-19 1h-14l-2-6-1-38v-24l2-38 3-25 8-49 6-27 12-42 7-20 11-28 13-30 12-24 11-20 10-17 8-13 22-32 8-11 12-16 13-15 12-14 15-16 29-29 11-9 10-9 11-9 13-10 18-13 18-12 19-12 23-13 29-15 28-13 28-11z" fill="#FFDB6E"/>
<path transform="translate(1405,1059)" d="m0 0 6 2 10 9 5 5 12 10 2 3v6l-11 12-4 2v2h-2v2h-2l-2 4-30 30-5 6-7 6-7 8-39 39h-2l-1 3-77 77-5 4-7 8-10 9-5 6-8 7-6 7h-2v2l-7 5-5-2-8-7-42-42-7-8-26-26-6-8 1-4 16-12 6-7 11-9 4-1 11 11 7 8 9 10 17 16 7 7 6 1 7-6 7-8 19-19 3-4h2l2-4h2l2-4h2l2-4h2l2-4 8-8h2l2-4h2l2-4 108-108h2l2-4 16-16z" fill="#FFDB6E"/>
<path transform="translate(963,1376)" d="m0 0 5 3 5 10 7 22 1 9-5 3-21 6-36 8-45 7-38 4-13 1h-51l-28-2-30-4-40-6-4-2v-7l6-31 4-8h9l32 4 36 3 23 1h55l36-3 29-4 35-7 21-6z" fill="#FFDB6E"/>
</svg>
