<?xml version="1.0" encoding="UTF-8"?>
<svg version="1.1" viewBox="0 0 1600 1600" width="1280" height="1280" xmlns="http://www.w3.org/2000/svg">
<path transform="translate(772,64)" d="m0 0h56l43 4 32 5 26 6 31 9 25 9 28 12 31 16 27 16 12 8 17 12 21 16 15 13 20 18 20 20 7 8 12 14 12 15 11 15 16 24 10 17 13 25 8 19 6 14 4 5 6 1h30l21 2 18 4 16 6 13 7 14 10 7 6 7 8 9 11 9 15 6 12 5 16 2 10 1 11v429l-1 38-2 32-3 16-6 17-9 17-9 12-9 13-9 12-8 11-14 17-9 11-10 13-12 16-8 11-11 14-3 4h-2l-2 4-9 12-8 10-9 12-14 19-14 17-9 11-10 13-6 8-14 19-14 17-8 10-8 11-3 8-1 5-1 53-1 27-2 15-4 13-6 9-9 10-10 8-7 3-7 1-17 1-47 1h-93l-97-1-14-2-11-4-9-7-7-7-8-13-3-10-1-9-1-23v-97l1-52 2-34 3-26 5-25 8-27 8-21 15-33 8-16 7-13 3-4-18 4-30 3-25 1h-49l-34-3-16-2-7-1 8 13 10 21 15 36 9 27 7 28 3 20 3 39 1 30v152l-2 17-5 12-11 12-11 8-11 4-9 1-20 1-59 1h-155l-19-1-15-3-8-4-8-7-9-12-6-11-3-9-1-7v-86l-2-8-9-14-9-12-16-21-10-13-22-28-13-16-13-17-28-36-13-16-12-16-14-18-20-26-13-16-13-17-14-18-10-15-8-13-5-10-7-21-3-20-1-14-1-33v-426l1-22 3-18 5-14 10-19 8-11 9-11 8-8 16-12 19-10 15-5 22-4 12-1h14l11 1h9l5-5 5-13 9-19 12-22 16-26 10-15 12-17 11-14 14-17 13-15 23-23 8-7 15-13 18-14 10-7 30-20 24-14 19-10 24-11 25-10 24-8 29-8 29-6 29-4zm-9 79-9 5-16 12-10 9-2 1v2l-4 2-11 12-13 17-7 10-9 16-11 21-12 28-10 25-5 12v2l12 1h108l3-1v-174zm69 1-1 71v103h121l2-1-3-10-11-29-6-15-8-18-12-22-9-15-9-12-11-13-12-13-10-9-14-10-10-6zm117 8 2 5 6 10 12 21 8 16 10 21 14 35 12 36 7 20 2 2 16 1h37l57-1 33-1-4-7-9-10-9-11-11-13-9-10-23-23-11-9-12-10-19-14-15-10-18-11-28-14-19-10-20-9-6-3zm-303 3 1 2zm-4 1-23 10-31 15-23 13-16 10-17 13-16 12-10 9-8 7-12 11-7 6v2l-4 2-7 8-9 10-9 11-10 11-7 9v1l8 1 36 1h97l3-1 8-24 7-19 10-27 14-32 14-26 5-8 9-16 2-5-1-4zm-236 228-12 1-5 10-8 21-13 41-8 40-7 43v2l3 1h189l3-34 5-55 8-60v-10zm244 0-23 1-3 14-4 32-8 95-1 17 4 1h80l70-1 2-1v-151l-1-7zm189 0-7 1-1 1v157l6 1h106l42-1 1-1v-12l-5-67-5-51-3-21-3-6-80-1zm301 0-104 1 6 39 4 36 4 65 1 18 5 1h87l97-1 4-1-1-14-7-44-9-39-8-28-9-24-6-8-2-1zm-862 64-13 5-16 10-12 11-8 12-4 13-1 19-1 79v369l2 20 4 18 8 16 10 15 8 9 20 26 12 15 11 14 13 17 11 14 10 13 11 14 9 11 10 13 12 15 12 16 12 15 9 12 8 10 11 14 20 26 13 17 11 15 6 11 2 7 1 11v27l-1 36v25l3 1h220l3-1v-19l-1-61-1-88-3-33-5-30-9-31-9-22-10-21-12-20-11-16-9-12-10-13-13-15-9-10-7-8-18-20-15-16-7-7-7-8-7-7-7-8-10-10-7-8-13-13-1-2h-2l-2-4-12-12-7-8-12-13-7-8-14-15-11-10-11-7-10-3h-19l-12 4-9 7-10 9-7 11-4 11-1 9 3 15 8 16 10 16 14 18 9 12 8 10 7 10 9 12 14 19 10 13 7 9 8 11 10 13 12 16 14 19 12 18 3 10v9l-5 10-10 10-12 6h-7l-10-3-9-6-12-14-12-16-16-21-14-19-60-80-14-18-14-20-10-16-7-14-5-16-3-17-3-31-1-37v-392l-1-12-1-3zm1035 0-1 11-1 52-1 353-1 31-3 36-4 20-5 12-8 15-10 14-12 17-7 9-9 11-11 15-13 18-15 20-11 14-16 22-14 19-6 7-7 9-11 13v2h-2l-6 7-9 6-5 2h-7l-11-4-8-6-7-8-4-8v-10l5-13 4-5 10-14 8-11 9-11 16-22 14-19 8-11 10-12 10-14 9-12 13-18 8-10 10-13 10-14 8-14 5-12 1-12-3-14-8-14-10-11-11-7-10-3-17-1-11 2-8 4-13 12-20 20-9 11-9 9-7 8-10 10-7 8-8 8-7 8-6 6v2h-2l-7 8-6 6v2l-3 1-7 8-7 7v2h-2l-7 8-15 16-7 8-9 10-8 9-7 8-8 9-8 10-13 17-12 18-16 28-9 20-6 14-6 21-7 32-3 25-1 12-1 44-1 82v46h224l2-1v-97l3-12 11-14 12-16 9-11 8-11 8-10 4-6 11-14 20-26 9-11 9-12 10-13v-2h2l15-20 13-16 10-13 8-10 6-8 10-13 8-10 13-17 9-10 6-9 12-15 12-17 7-14 4-13 2-8 2-24 1-22 1-366v-61l-1-20-5-13-8-11-10-10-14-8-14-6zm-775 158-185 1v9l6 40 7 30 8 26 10 29 12 29 10 21 6 8 5 2 57-2 83-1 11-1-1-10-6-35-7-52-7-78-2-16zm73 1-1 1 1 16 2 29 8 72 4 28 5 29 4 15 1 1h129l3-3v-182l-1-6zm220 0v191h132l3-13 8-44 8-62 4-39 2-32-2-1zm222 0-2 2-2 40-3 41-5 38-9 57-2 12 11 1 81 1 54 1 9-2 5-4 10-18 13-30 13-37 6-22 7-29 5-31 1-16-2-3-10-1zm-522 256-10 1 3 5 9 10 7 7 7 8 8 8 7 8 14 14 14 16h2l2 4 9 10 1 2h2v2h2l2 4 13 14 7 8 9 9 7 8 5 2-2-7-8-16-13-21-8-15-10-21-9-24-11-28-4-6-1-1zm502 1-22 1-4 8-6 19-7 17-10 25-16 31-9 15-5 8-4 8 1 2 16-12 14-15 12-13 14-15 9-10 7-8 7-7 7-8 12-12 7-8 5-5v-2l3-1 8-10 3-7-3-1zm-363 0-16 1 5 12 12 26 6 11 10 18 16 23 10 11 7 8 8 8 10 8 8 7 14 8h6l1-1v-132l-1-8zm254 0-92 1-1 1v126l1 14h6l12-6 11-9 12-11 14-13 7-9 8-10 10-15 8-14 6-12 5-11 11-28 1-4z" fill="#FFDB6E"/>
<path transform="translate(951,155)" d="m0 0" fill="#FFDB6E"/>
</svg>
