<?xml version="1.0" encoding="UTF-8"?>
<svg version="1.1" viewBox="0 0 1600 1600" width="1280" height="1280" xmlns="http://www.w3.org/2000/svg">
<path transform="translate(419,1286)" d="m0 0h731l51 1 24 2 15 4 16 8 14 10 11 10 11 14 10 18 7 19 2 11 1 11v68l-2 21-5 12-6 8-9 5-14 3-31 1-773 1h-124l-36-2-9-3-8-10-5-11-3-16-1-12-1-36 1-26 3-23 4-14 8-16 7-11 11-12 8-8 17-12 17-8 16-4 17-2zm-11 25-24 2-16 4-12 5-14 10-7 6-9 12-8 16-3 13-2 20-1 20v41l2 18 2 7 6 2 39 1h896l19-1 5-2 3-5 1-8 1-22v-49l-1-16-4-16-5-12-7-11-12-12-9-7-14-8-11-4-21-3-20-1z" fill="#FFDB6E"/>
<path transform="translate(779,88)" d="m0 0h41l24 2 25 4 18 5 25 9 22 11 15 9 18 12 18 14 10 9 12 12 13 14 8 11 10 14 10 16 10 18 10 22 8 24 6 23 3 17 1 10 1 30-1 25-3 29-7 29-8 24-14 29-11 18-10 14-11 14-3 4h-2l-2 4-9 10-15 15-14 11-13 10-19 12-23 12-27 11-24 7-25 5-21 3-12 1h-29l-31-3-27-5-29-9-18-8-16-8-15-8-15-10-16-12-13-12-8-7-9-9-7-8-13-16-10-15-13-22-14-32-9-27-5-23-3-20-1-12v-35l2-26 5-29 4-15 7-21 8-16 8-17 13-20 12-17 12-14 7-8 12-13 10-9 13-11 27-18 27-14 17-7 25-8 23-5 21-3zm10 25-21 1-21 3-25 6-27 9-19 9-21 13-12 9-11 9-7 6v2l-4 2-20 20-9 11-10 13-6 9-6 11-12 23-9 25-6 22-3 23-1 12v46l3 25 4 18 6 20 8 20 12 23 8 13 7 10 7 9 13 16 20 20 14 11 24 16 16 9 20 9 24 9 23 6 22 3 11 1h41l25-3 22-5 30-10 17-8 23-13 15-10 12-9 14-12 14-14v-2h2l9-11 11-15 6-9 10-18 8-18 9-25 6-22 3-19 2-25v-27l-3-27-3-19-6-22-10-27-11-21-14-23-9-11-12-13-4-5-8-7-9-9-17-13-10-7-21-13-16-8-19-8-20-6-25-5-17-2-23-1z" fill="#FFDB6E"/>
<path transform="translate(781,138)" d="m0 0h48l22 3 20 5 20 7 16 8 24 14 18 13 13 12 9 8 9 11 9 10 14 21 11 20 10 25 8 29 3 18 2 25v17l-2 25-5 23-6 20-6 16-8 16-9 17-7 10-10 14-2 3h-2l-2 4-7 8h-2v2h-2v2l-8 7-12 10-15 10-22 13-17 8-21 8-28 7-20 3-13 1h-29l-23-2-23-5-27-9-25-12-14-8-15-11-11-9-12-11-11-12-11-14-10-15-8-14-8-16-6-13-10-30-5-28-1-11v-38l4-29 5-19 6-16 12-25 9-16 6-8 7-10 12-14 11-12 8-7 10-9 19-14 13-8 25-12 24-8 23-5zm-3 26-24 3-21 5-20 7-21 11-19 13-15 13-7 6v2h-2v2h-2l-7 8-12 16-10 15-6 10-9 20-8 24-4 19-2 20v38l2 18 6 24 7 19 8 16 13 21 14 17 7 8 15 15 11 9 11 8 19 11 16 8 18 7 25 6 14 2 13 1h24l25-3 25-6 20-7 16-8 16-9 16-12 14-12 17-17 10-13 7-10 8-14 7-14 7-20 5-17 4-27v-38l-4-30-5-19-10-25-8-16-6-11-10-14-9-11-17-17-13-10-13-9-17-10-21-10-21-7-21-4-18-2z" fill="#FFDB6E"/>
<path transform="translate(124,688)" d="m0 0h353l15 2 7 4 7 7 3 9 2 14 1 37v105l-2 27-3 18-5 15-10 20-7 10-8 10-5 6-8 7-13 10-19 10-19 6-24 4-24 2-48 2h-35l-57-2-21-2-20-4-21-7-17-9-10-8-10-9-12-14-9-15-9-19-6-19-3-17-2-20v-112l1-28 3-16 4-10 6-7 10-5zm-8 25-2 4-1 6-1 20-1 82v31l1 20 4 25 6 20 6 12 8 11 12 13 14 11 17 9 17 5 20 3 36 2h113l27-2 19-4 19-8 13-9 9-7 7-8 6-7 9-14 5-12 4-20 2-18 1-18v-112l-1-28-2-5-3-1-15-1z" fill="#FFDB6E"/>
<path transform="translate(1260,687)" d="m0 0h170l49 1 13 2 8 4 6 8 4 13 1 6 1 31v118l-2 24-4 20-7 19-8 14-10 14-19 19-13 10-14 8-16 6-21 4-16 2-31 2-46 1-53-1-38-2-27-4-22-7-16-8-12-9-10-9-7-7-9-12-8-13-7-17-5-18-4-28-1-17v-96l1-36 2-17 3-7 6-8 8-5 11-3 25-1zm-139 26-5 2-2 4-2 22v120l2 32 3 16 6 16 11 18 9 10 11 10 11 7 14 7 17 5 22 3 43 2h99l23-1 17-2 16-5 14-6 12-8 11-9 9-10 7-10 6-12 6-18 3-16 2-23v-145l-3-7-1-1-30-1z" fill="#FFDB6E"/>
<path transform="translate(1442,187)" d="m0 0h15l16 4 11 6 11 9 6 8 6 11 4 11 2 11 1 11v32l-3 28-6 29-6 17-12 23-10 13-11 12-8 8-11 9-14 10-15 8-16 6-17 4-23 3-27 2-97 1-119-1-5-6v-9l3-9 2-2h226l24-2 20-4 15-5 17-9 12-9 7-6h2v-2l4-4h2l2-4 8-9 10-16 6-14 5-14 5-22 2-22v-43l-3-13-6-11-5-6-8-5-7-2h-16l-9 2-6 4h-2l-2 4-5 9-3 12-1 12-1 40-2 17-5 13-7 11-11 12-9 6-13 5-7 1-19 1h-157l-57-1-3-6-1-4v-8l2-6 2-1 65-1h143l24-1 11-3 6-4 5-10 3-14 2-48 1-11 7-23 9-13 9-9 13-8 13-4z" fill="#FFDB6E"/>
<path transform="translate(144,187)" d="m0 0h13l11 2 16 8 9 7 8 9 8 16 3 11 1 10v48l2 14 4 10 7 8 7 3 16 2 80 1 145 1 4 2 2 4v8l-5 11-1 1h-211l-19-1-17-3-10-4-10-8-8-10-9-17-4-14-1-4v-57l-4-13-7-10-9-6-5-2h-20l-11 4-8 7-4 8-4 16-2 24v19l3 26 5 21 6 17 8 15 12 16 9 10 8 7 18 13 19 9 12 4 16 3 27 3 35 1h189l5 5 3 8v7l-3 3-3 1-13 1h-218l-22-2-22-4-21-7-16-8-11-7-13-10-12-11-12-14-10-15-11-22-7-18-5-21-3-24-1-24 2-28 5-19 9-16 7-8 10-8 13-6z" fill="#FFDB6E"/>
<path transform="translate(1245,762)" d="m0 0 12 1 16 7 7 6 14 14 4 2h6l8-7 7-8 14-11 10-4h11l12 5 8 6 9 11 4 9 1 5v9l-7 11-12 13-11 12 1 11 3 5 1 3 4 2 7 8 8 10 4 8 2 7v9l-9 17-6 7-7 5-12 3-13-1-12-6-13-11-7-7-3-4v-2l-3 1-3-1-8 4-9 10-11 8-14 6-14 2-11-3-8-6-7-8-5-10-1-5v-10l2-11 4-6 10-9 9-9 3-7-1-6-10-14-12-15-4-9-1-4v-10l2-10 5-8 7-7 7-4zm6 25 1 2h2v-2zm100 0-14 7-12 11-9 9-7 8-5 4-4-1-11-4-28-28-5-2-2 2 3 5h-2l-1 3-4-4-6-2v-2h-2l-2 10 7 11 13 13 8 7 8 10 3 6-4 6-16 14-14 14-5 7-2 10 3 8h2v2h8l8-3 10-9 10-10 3-4v-2h2l6-7 7-4 7 1 15 14 9 10 6 7 8 6 8 2 8-1-2-2 3-4 1-1h1l-1-8-6-10-12-14-9-10-9-11 1-6 6-9 13-12 7-8 5-5 4-7v-7l-4-10zm-96 1m1 1m-1 1m-17 5m1 1 1 4z" fill="#FFDB6E"/>
<path transform="translate(616,642)" d="m0 0h9l4 2 2 4v23l-5 61-5 58-5 65-9 106-5 68-8 92-5 57-5 68-2 3-4 1h-16l-3-1v-25l4-57 6-69 8-106 6-61 7-90 3-42 9-95 4-40 2-12 4-8z" fill="#FFDB6E"/>
<path transform="translate(973,641)" d="m0 0h8l7 3 3 7 4 39 9 108 10 117 8 102 9 101 9 124v6l-1 1h-23l-1-1-5-62-8-94-6-72-5-54-9-117-9-101-4-49-2-29v-18l1-8z" fill="#FFDB6E"/>
<path transform="translate(370,762)" d="m0 0h9l11 4 9 6 8 9 5 10 2 8-1 7-8 14-9 10-1 2h-2l-2 4-33 33-3 4h-2l-2 4-21 21-5 6-8 7-7 7-16 12-8 4-8 2h-11l-10-4-14-9-13-11-20-20-10-13-9-13-4-9-1-5v-7l3-10 5-8 8-8 12-6 6-1h11l12 4 11 8 4 4v2l4 2v2l4 2 6 5 4 1 6-1 4-2 2-4 13-14 1-2h2l2-4 9-10 14-15 14-14 10-7 8-4zm5 25-12 6-6 5v2l-4 2-7 8-16 16v2h-2l-7 8-12 12-7 8-15 15-5 3-6 1-10-3-10-8-11-12-11-11-4-2h-11v3l-3 1 1 8-2 1 2 6 6 9 23 23 8 7 9 8 6 4 7 1 6-2 9-6 12-11 13-13 7-8 1-3h2v-2h2v-2h2v-2h2v-2l4-2 7-8 7-6 7-8 7-6v-2l4-2v-2h2l7-8 6-9 2-5-1-8-4-6zm-159 53m-2 7v5h1v-5z" fill="#FFDB6E"/>
<path transform="translate(783,239)" d="m0 0h31l15 4 16 9 13 13 8 14 5 13 1 6v18l-3 16-6 12-9 12-8 8-14 10-13 8-4 5-1 7-1 39v8l-2 5-6 5-2 2-8 1-5-5-4-7-1-7v-16l1-23 2-12 3-6 2-7 4-5 8-5 11-6 11-8 6-5 7-10 4-8 1-5v-15l-3-12-6-11-8-8-10-6-8-3-6-1h-9l-11 2-9 5-9 8-9 12-12 19-6 7-4 1-5-5-3-6v-9l6-16 6-12 11-13 7-6 10-6z" fill="#FFDB6E"/>
<path transform="translate(1253,496)" d="m0 0h8l5 3-1 11-6 17-17 41-14 34-7 15-7 16-6 15-4 4-8 2h-6l-6-8v-8l12-31 14-32 11-27 11-25 8-17 4-5 6-4z" fill="#FFDB6E"/>
<path transform="translate(1338,497)" d="m0 0h14l5 4 8 17 14 33 11 26 13 31 12 32 1 7-4 4-5 2h-7l-8-7-5-8-10-23-13-30-17-41-10-23-4-11-1-10z" fill="#FFDB6E"/>
<path transform="translate(346,496)" d="m0 0 7 2 6 8 7 15 14 32 10 24 13 31 8 19 5 16v6l-6 2-14 1-5-5-8-18-13-31-23-54-14-34-1-9 7-4z" fill="#FFDB6E"/>
<path transform="translate(252,494)" d="m0 0h9l5 2-1 10-11 33-17 41-13 30-13 28-6 10-6 5-2 1h-7l-5-3-2-3v-8l17-41 8-19 14-33 7-17 13-27 4-5z" fill="#FFDB6E"/>
<path transform="translate(801,474)" d="m0 0 10 1 2 6-1 9-6 9-4 3h-5l-8-6-4-8 1-5 4-6 3-2z" fill="#FFDB6E"/>
<path transform="translate(223,840)" d="m0 0h5l2 2 2-1 2 2 5 6v7l-4-1v4l-4 2v-2h-2v-2l-3-1-1-3-4 1-1-5h3l-2-4zm8 5m1 1m3 2 1 3 2-1z" fill="#FFDB6E"/>
<path transform="translate(1244,796)" d="m0 0 3 2h-3z" fill="#FFDB6E"/>
<path transform="translate(1246,909)" d="m0 0 2 1z" fill="#FFDB6E"/>
<path transform="translate(241,857)" d="m0 0" fill="#FFDB6E"/>
<path transform="translate(236,856)" d="m0 0" fill="#FFDB6E"/>
<path transform="translate(217,854)" d="m0 0" fill="#FFDB6E"/>
<path transform="translate(1304,916)" d="m0 0" fill="#FFDB6E"/>
<path transform="translate(1258,906)" d="m0 0" fill="#FFDB6E"/>
<path transform="translate(237,860)" d="m0 0" fill="#FFDB6E"/>
<path transform="translate(219,858)" d="m0 0" fill="#FFDB6E"/>
<path transform="translate(247,856)" d="m0 0" fill="#FFDB6E"/>
<path transform="translate(239,856)" d="m0 0" fill="#FFDB6E"/>
<path transform="translate(243,852)" d="m0 0" fill="#FFDB6E"/>
<path transform="translate(240,852)" d="m0 0" fill="#FFDB6E"/>
<path transform="translate(239,851)" d="m0 0" fill="#FFDB6E"/>
<path transform="translate(240,849)" d="m0 0" fill="#FFDB6E"/>
<path transform="translate(239,848)" d="m0 0" fill="#FFDB6E"/>
<path transform="translate(238,847)" d="m0 0" fill="#FFDB6E"/>
<path transform="translate(237,846)" d="m0 0" fill="#FFDB6E"/>
<path transform="translate(236,845)" d="m0 0" fill="#FFDB6E"/>
<path transform="translate(235,844)" d="m0 0" fill="#FFDB6E"/>
<path transform="translate(234,843)" d="m0 0" fill="#FFDB6E"/>
<path transform="translate(229,840)" d="m0 0" fill="#FFDB6E"/>
<path transform="translate(1252,802)" d="m0 0" fill="#FFDB6E"/>
<path transform="translate(1257,793)" d="m0 0" fill="#FFDB6E"/>
<path transform="translate(1256,792)" d="m0 0" fill="#FFDB6E"/>
</svg>
