<?xml version="1.0" encoding="UTF-8"?>
<svg version="1.1" viewBox="0 0 1600 1600" width="1280" height="1280" xmlns="http://www.w3.org/2000/svg">
<path transform="translate(679,64)" d="m0 0h252l37 1 19 2 12 5 14 8 10 8 8 8 11 15 8 16 3 11 2 22v96h237l36 2 19 3 19 7 14 8 12 9 12 11 8 10 9 14 9 17 6 18 2 11 1 12 1 136-1 817-1 70-2 32-4 18-12 25-10 14-13 14-14 10-21 10-19 5-22 3-37 2-951 1-50-1-21-2-17-4-13-5-15-8-13-10-13-13-10-14-8-14-6-14-4-16-2-15-1-16-1-67v-947l2-24 4-17 5-13 8-16 8-12 9-11 11-11 17-12 16-8 11-4 17-3 27-2h230l18-2 1-84 1-21 2-13 4-13 8-15 10-13 10-10 14-10 13-6 14-3 13-1zm-40 65-16 1-4 2-6 9-4 16-2 26-1 30v40l1 2 8 1 45 1h313l17-2 2-3-2-86-1-16-3-11-4-6-8-3-28-1zm-308 191-49 1-17 3-12 6-12 11-7 10-6 13-3 11-1 10-1 136v53l1 1h95l1-83 1-11 1-1h218l3 3 1 92h511l1-91 1-4h219l2 1 1 69 1 25 34 1h42l16-1 3-1v-77l-1-115-1-11-4-12-6-11-9-12-12-9-11-4-5-1-16-1-180-1zm53 223-1 2 1 125 10 1 39 1h40l6-2v-126l-8-1zm736 0v127l12 1 43 1h35l5-2v-126l-8-1zm-896 96-1 91-1 600v54l1 24 2 14 4 12 7 12 8 9 10 7 10 5 12 3 10 1h1016l23-2 12-4 11-6 9-7 7-9 7-17 3-17 1-22v-743l-2-5h-93l-1 4v90l-2 1h-220l-1-1-1-18-1-75-2-1h-508l-1 6v88l-3 1h-219l-1-1-1-21v-67l-2-6z" fill="#FFDB6E"/>
<path transform="translate(780,800)" d="m0 0h37l31 3 21 4 24 8 25 12 21 13 14 10 13 11 13 12 13 13 9 11 11 15 10 16 10 19 10 24 7 23 5 30 1 12v35l-3 30-5 23-7 21-8 19-13 24-8 12-9 12-13 15-4 5-7 6-5 5-11 10-10 8-11 8-13 8-16 9-20 8-25 8-24 5-25 3h-46l-28-4-20-5-22-8-20-9-19-11-14-10-11-9-10-9-8-7-8-8v-2h-2l-9-11-11-14-9-14-9-16-11-23-10-30-4-17-3-23v-52l4-27 5-19 6-15 5-13 13-26 9-14 13-18 13-15 18-18 11-9 16-12 21-13 27-13 19-7 22-5 21-3zm4 65-19 2-21 5-20 7-21 11-15 10-16 13-16 16-11 14-9 13-12 24-8 24-4 16-3 26v26l3 23 7 25 7 17 9 17 11 16 11 13 11 12 14 11 11 8 21 12 18 8 21 7 25 4h37l27-4 19-5 22-9 17-9 17-12 15-13 8-8v-2h2l9-11 6-8 6-10 12-23 7-22 5-21 2-20v-24l-2-21-4-20-8-23-9-19-10-16-10-13-9-10-12-12-19-14-17-10-20-9-19-6-19-4-23-2z" fill="#FFDB6E"/>
<path transform="translate(788,929)" d="m0 0h13l11 2 12 6 5 5 2 14v65l32 2 27 2 11 3 6 4 6 7 3 8v16l-4 11-8 7-11 4-5 1-14 1-37 1-4 1-1 2v32l-1 29-2 14-3 6-7 6-13 4h-15l-10-3-5-4-6-11-2-8-2-68-54-1-12-2-8-5-5-6-4-10v-16l3-9 5-8 8-5 10-2 56-2 2-1v-58l2-16 4-8 9-8z" fill="#FFDB6E"/>
</svg>
