<?xml version="1.0" encoding="UTF-8"?>
<svg version="1.1" viewBox="0 0 1600 1600" width="1280" height="1280" xmlns="http://www.w3.org/2000/svg">
<path transform="translate(919,95)" d="m0 0h25l33 2 37 4 28 5 25 6 36 11 26 10 22 9 33 16 25 15 23 15 13 9 16 12 18 14 13 12 10 9 30 30 7 8 12 14 7 9 12 16 16 24 15 24 14 27 12 25 9 23 10 28 9 32 8 35 4 24 4 41v65l-3 39-5 33-11 47-6 19-13 37-13 30-10 19-10 18-8 13-13 21-13 17-10 13-13 16-11 13-7 8-28 28-16 14-14 11-16 12-19 13-15 10-16 9-14 8-27 14-30 13-19 7-34 11-25 6-28 6-33 5-37 3h-62l-34-3-28-4-36-8-35-10-34-13-27-12-25-12-22-12-22-14-14-9-5-2-6 3-14 15-13 12-9 9-7 8-128 128-5 6-8 7-5 6h-2l-1 3-8 7-5 6h-2l-1 3-7 6-6 7h-2l-1 3-7 6-7 8-5 4-5 6-5 5-6 5-5 6-9 9h-2l-1 3-45 45-6 5-1 2h-2l-2 4-24 24-6 5-7 8-8 7-18 18h-2v2l-8 7-7 6-4 4-4-3v-2h-2l-6-8-2-4h-2l-7-8-50-50-8-6-5-6-1-4 6-8 15-16 89-89 1-2h2v-2h2v-2l8-7 4-5h2v-2h2v-2l7-6 5-6h2v-2h2v-2l7-6 1-2h2v-2h2l2-4h2v-2l7-6 1-2h2v-2h2l2-4h2v-2l7-6 1-2h2v-2h2l2-4h2v-2l7-6 1-2h2v-2h2l2-4 4-2v-2h2v-2l12-12h2v-2h2v-2h2v-2h2l2-4 8-8h2v-2h2v-2h2l2-4 10-10h2l2-4 116-116h2v-2h2v-2l8-7 10-9 5-4 1-7-6-9-12-16-10-14-12-18-10-16-16-28-12-24-16-38-12-36-6-21-8-37-4-26-3-32-1-21v-32l1-25 3-32 5-31 11-46 7-22 11-30 12-27 8-16 12-23 11-18 20-30 7-9 11-15 13-16 18-21h2l2-4 12-12h2l2-4 8-7 12-11 9-7 15-12 12-9 17-12 21-13 21-12 17-9 28-13 30-12 27-9 36-9 31-6 34-4zm-16 65-35 3-36 6-35 8-23 7-24 9-23 10-19 9-24 14-18 11-20 14-10 8-14 11-14 12-10 9-23 23-9 11-9 10-12 16-13 18-7 10-9 15-9 16-15 30-9 21-9 24-10 30-6 29-6 37-4 41v34l3 34 6 42 6 28 10 33 10 27 9 20 12 25 10 18 10 16 13 19 9 12 13 16 9 10 12 13 25 25 8 7 14 12 12 9 18 13 19 12 24 14 27 14 33 14 30 10 27 7 31 6 31 4 24 2h55l30-3 41-7 30-7 36-12 22-9 30-14 23-13 12-7 17-11 15-11 14-11 11-9 3-2v-2l4-2 10-9 8-7 17-17 3-4v-2h2l7-8 9-11 14-18 14-20 9-15 12-21 8-15 15-34 13-38 8-32 8-46 3-27 1-18v-30l-2-29-6-46-6-28-8-29-9-24-6-17-12-27-12-22-12-21-14-21-10-14-10-13-12-14-11-12-23-23-8-7-13-11-17-13-18-13-24-15-22-12-16-8-19-9-26-10-34-11-23-6-36-6-24-3-26-2z" fill="#FFDB6E" />
<path transform="translate(1e3 285)" d="m0 0h44l17 2 11 4 8 7 4 8v20l-5 9-16 15-5 8-4 11 2 10 4 4 16 7 28 11 24 13 8 2 6-4 10-13 5-7-1-7-5-10v-8l6-11 8-8 10-8 2-1h7l11 4 13 8 12 11 10 8 9 10 7 8 10 14 4 11-1 6-6 9-7 8-8 7-11 3-9-2-13-3-1 2v2l-8 4-10 9h-2l-2 5 1 6 13 26 9 24 8 21 3 4 14-1 13-4 10-8 5-5 10-9 9-4 10 1 12 6 8 7 5 16 2 12v48l-3 13-6 10-12 9-10 4-11-2-9-6-12-14-9-8-16-4-8 1-3 1-9 27-7 16-8 17-7 14 1 7 4 9 11 8 5 4 9-1 8-3h7l10 4 11 9 8 10 2 8-3 9-4 8-9 11-1 2h-2l-2 4-8 8-1 2h-2l-2 4-8 7-7 7-13 10-12 5-8-2-13-9-10-9-3-6v-10l3-10 2-4-1-7-11-14-7-6-8-1-9 4-16 9-28 11-18 6-5 2v15l4 10 7 11 6 7 2 1v2h2l8 11 1 3v13l-6 11-5 6-8 5-9 2-30 2h-21l-16-1-12-3-7-8-8-13-3-10 6-11 9-10 12-12 4-6 1-4v-19l-10-5-10-3-18-6-19-8-19-9-9-2-5 5-7 12-2 6 1 12v11l-4 10-7 9-9 8-8 4-11-3-13-8-11-9-25-25-8-10-7-11-5-10 2-6 8-13 8-10 5-3h16l10 3 6 1 13-9 4-3h2l1-8h2l-5-14-11-25-11-32-5-8-6-3h-15l-8 4-23 23-5 2-13 1-10-5-10-9-4-5-3-10-1-10v-47l3-16 5-9 10-8 7-5h9l11 4 10 9 6 7 2 1v2l4 2 11 4 8 2h9l5-2 13-39 4-11 7-14 4-9 1-11-6-8-2-2-11-4v-2l-9 1-9 3h-8l-10-3-11-11-7-11-3-4 1-7 5-10 11-14 16-16 6-7 6-5 6-7 17-11 9-3 10 4 11 9 6 7 4 11v8l-3 12 1 7 7 12 2 4 10 2 10-3 16-8 21-8 24-7 8-4 2-3v-12l-4-12-6-10-12-13-5-6-5-5 1-4 5-13 8-11 5-5 9-3zm200 159m-192 5-18 2-16 5-19 9-14 11-7 7-6 5-13 18-8 16-5 15-4 17-2 21 1 17 4 20 7 21 8 15 9 11 9 10 9 8 10 7 16 8 16 6 17 3 22 1 21-2 16-4 13-5 19-10 12-9 10-9 12-13 10-18 6-16 4-13 2-13v-29l-3-17-6-17-8-17-8-12-11-13-10-9-17-11-15-7-21-6-11-2-15-1z" fill="#FFDB6E" />
<path transform="translate(1208,444)" d="m0 0 2 1z" fill="#FFDB6E" />
</svg>
