<?xml version="1.0" encoding="UTF-8"?>
<svg version="1.1" viewBox="0 0 1600 1600" width="1280" height="1280" xmlns="http://www.w3.org/2000/svg">
<path transform="translate(216,159)" d="m0 0h472l22 2 16 4 16 8 11 9 10 11 9 14 8 17 10 28 12 43 23 86 17 63 16 59 17 62 14 52 12 47 11 43 6 23 1 4h165v-99l1-109 2-27 4-24 6-21 9-22 9-17 10-15 10-13 9-10 11-10 18-13 17-10 22-10 21-7 28-6 24-3h31l11 3 9 6 4 5 3 8 2 13 1 12v43l-2 19-3 8-6 5-20 8-14 7-5 8-7 22-4 26-1 15-1 33-1 107-1 69h224l27 3 13 4 14 7 11 8 11 10 12 17 5 7v2h2v42l-3 3 1 1v5h2v10l-3-3v-3l-1-3h-3l-18 52-10 26-11 30-25 70-11 30-8 21-10 24-11 19-7 10-7 9-8 7-7 7-13 9-11 6-1 2 6 9 11 14 10 15 10 17 11 23 11 30 6 24 3 24v33l-2 22-4 24-4 15-9 25-9 19-9 16-7 11-9 12-13 15-4 5-8 7-10 10-13 10-9 7-15 10-23 12-20 8-24 8-19 5h-4v3h-85l1-2-9-2-1 3-2-1 1-2-11-4-24-9-26-11-17-9-15-10-13-10-11-10-8-7-8-8v-2h-2l-9-11-10-13-13-21-12-23-7-16-8-24-5-23-2-16v-45l3-25 6-26 10-28 14-27 8-13 11-18 1-3h-133v22l-2 14-6 12-7 6-8 4-4 1h-13l-10-4-9-6-5-6-3-12-5-57-4-30-6-29-9-31-12-33-13-29-11-22-12-20-12-18-12-16-13-16-12-14-24-24-8-7-14-12-16-12-14-10-17-11-19-11-23-12-21-10-23-9-24-8-27-7-25-5-23-3-34-3h-48l-38 4-39 7-25 7-29 10-27 12-16 8-19 10-20 12-12 8-13 9-16 12-13 8-15 7-8 1-7-6-6-4-7-8-5-10-2-7v-10l3-8 7-8 9-8 28-21 1-2v-488l1-43 2-16 3-12 8-15 9-12 14-14 13-9 12-6 14-3 13-1zm136 64-162 1-13 1-5 2-5 5-4 8-3 15-1 136v351l6-2 32-14 35-13 34-10 33-7 31-4 26-2h76l33 3 27 4 27 6 31 9 26 9 30 12 36 18 26 16 18 12 14 10 14 11 11 9 14 12 13 12 21 21 7 8 12 14 14 18 12 17 14 21 12 20 18 36 12 28 12 36 7 26 9 37 2 4h450l29-2 12-4 18-10 12-10 9-11 6-10 8-19 7-17 8-24 12-32 8-23 16-45 9-25 10-27 11-33 3-12v-13l-4-1-44-2-592-1-13-2-5-5-8-16-7-22-12-44-9-34-13-47-9-34-18-67-10-35-9-34-8-29-13-47-12-47-16-59-13-41-5-8-4-2-9-1-33-1zm919 166-30 7-17 6-14 8-13 10-13 13-12 17-8 17-5 17-3 19-2 31-1 112v88l7 1h53l1-198 2-34 2-15 4-19 6-18 8-18 12-17 9-10 11-11 5-4v-2zm325 447m-2 3 1 3zm-442 344-12 2-10 5-10 9-16 16-10 13-10 14-8 14-8 20-5 15-4 16-2 18v36l3 23 6 22 7 19 8 15 10 15 11 13 9 10 7 7 17 13 10 7 21 11 11 5 18 6 22 5 19 2h17l21-2 26-6 20-7 21-10 17-11 11-8 10-9 3-2v-2h2l7-8 10-12 9-14 9-16 5-11 7-21 5-23 2-19v-18l-2-20-5-25-9-26-12-23-12-17-9-11-11-12-12-10-12-6-9-2h-40l-39 1-14 1v1l13 2 29 6 19 7 16 8 12 8 17 14 9 9 8 10 7 10 9 16 8 20 4 18 2 16v27l-2 18-5 19-6 15-10 19-12 16-7 8-2 4-4 2v2l-4 2-5 4v2l-5 2-8 6-15 9-21 9-19 5-12 2-22 1-17-1-25-4-16-5-21-10-14-10-14-12-12-13-9-12-12-20-7-15-6-18-3-14-1-9v-31l2-16 6-21 8-18 10-17 8-11 9-10 6-7 19-14 21-12 19-8 15-3 21-4 3-3-29-1zm83 65-12 2-12 4-16 8-11 9-8 8-9 13-8 16-5 16-2 12v19l3 16 6 15 7 12 8 10 13 12 15 9 14 6 14 3 11 1h10l19-3 13-5 19-10 14-12 9-11 8-16 5-15 1-10v-29l-3-14-5-13-6-11-9-12-11-10-16-10-14-6-13-3-10-1zm47 350v1h5v-1z" fill="#FFDB6E"/>
<path transform="translate(355,833)" d="m0 0h60l31 3 19 3 21 5 33 11 23 10 24 12 17 10 14 9 17 12 16 13 10 8 16 15 10 10v2h2l9 11 11 14 12 17 12 19 8 14 8 15 9 20 11 28 10 36 5 24 3 23 1 11v51l-3 34-5 26-10 36-6 17-13 30-8 15-9 16-6 10-8 12-12 15-11 14-11 12-1 2h-2l-2 4-18 18-11 9-10 8-12 9-17 12-19 11-27 14-34 14-21 7-35 9-22 5-2 2h-104l2-2-36-9-38-12-22-8-26-12-24-13-21-14-18-14-11-9-12-11-24-24-9-11-10-12-13-18-13-20-9-16-9-17-12-29-8-24-11-39-2-10-2-1v-128l2 1 5-16 9-30 9-25 10-23 8-16 11-20 18-27 8-11 7-9 12-14 7-8 22-22 11-9 12-10 16-11 12-8 13-8 18-10 24-11 18-7 25-8 37-8 27-3zm5 63-28 3-28 6-25 7-24 10-15 7-24 13-16 11-18 14-10 9-16 14-7 8-9 10-13 17-12 17-6 10-8 14-10 21-10 25-7 27-6 31-4 33v34l4 31 6 27 6 22 11 28 12 25 14 23 11 15 8 10 12 14 18 18 8 7 14 11 15 11 19 12 18 10 25 12 22 8 30 7 26 4 31 3h26l27-3 27-5 23-6 23-8 24-11 19-10 18-11 17-12 14-12 11-9 15-15v-2h2l7-8 13-16 11-16 7-11 14-26 13-32 10-38 4-20 3-25v-45l-3-26-5-27-9-32-6-16-13-28-12-21-10-15-12-16-9-11-25-25-14-11-13-10-20-13-22-12-23-11-24-9-21-6-27-5-25-3-13-1z" fill="#FFDB6E"/>
<path transform="translate(361,286)" d="m0 0h172l137 1 7 6 8 16 12 42 14 54 15 55 31 113 6 25v21l-4 8-8 7-8 3-6 1-51 1h-434l-15-3-7-6-4-9-2-9-1-12-1-42v-40l1-179 1-26 3-13 5-7 5-3 13-2 26-1zm-73 65-1 1v224l401-1 2-2-5-21-13-45-11-42-20-78-7-27-3-8-3-1z" fill="#FFDB6E"/>
<path transform="translate(368,1042)" d="m0 0h33l21 3 19 5 17 7 23 13 13 10 12 11 11 11 13 17 11 19 8 19 5 15 3 15 1 9v39l-3 22-5 17-11 24-8 14-9 12-18 20-14 11-9 7-13 8-14 6-19 7-16 4-26 3h-28l-21-3-19-5-20-8-16-9-12-9-14-12-9-9-9-11-10-15-12-22-9-24-5-21-1-9v-35l3-20 6-21 11-24 9-15 13-17 12-12 8-7 13-10 21-12 24-10 19-5zm3 62-13 2-13 4-15 7-10 6-11 9-3 2v2h-2l-13 17-9 17-6 17-3 15-1 8v14l3 19 6 17 10 19 13 15 11 10 16 10 19 8 20 4h22l15-2 16-5 19-9 16-12 11-11 11-15 7-16 5-17 1-10v-32l-3-15-6-15-9-16-11-13-8-8-16-11-17-8-17-5-17-2z" fill="#FFDB6E"/>
<path transform="translate(301,1597)" d="m0 0 2 3h-4v-2z" fill="#FFDB6E"/>
<path transform="translate(1178,1598)" d="m0 0 3 1-3 1z" fill="#FFDB6E"/>
<path transform="translate(1182,1598)" d="m0 0 3 2h-3z" fill="#FFDB6E"/>
</svg>
