<?xml version="1.0" encoding="UTF-8"?>
<svg version="1.1" viewBox="0 0 1600 1600" width="1280" height="1280" xmlns="http://www.w3.org/2000/svg">
<path transform="translate(969)" d="m0 0h49l-3 2h-10l-1 2 17 9 19 8 16 8 21 10 23 13 25 15 23 14 27 18 17 12 21 16 14 11 10 9 11 9 12 11 16 15 6 6v2h2l7 8 9 9 9 11 11 13 12 16 14 20 15 25 14 27 11 26 12 36 6 26 3 21 1 14v37l-2 25-3 19-8 26-7 19-13 25-8 12-9 11-11 12-12 11-15 12-19 12-17 8-19 7-21 5-22 2-23-1-13-2-18-8-3 7-4 20-8 32-7 31-11 38-8 24 1 5 9 6 16 9 13 9 6 5 9 11 10 12 7 10 4 2 10-1 20-5 8-1h39l19 3 16 5 19 9 13 9 14 12 11 14 10 16 8 15 6 17 1 2 12-3 22-8 29-7 20-3h22l16 2 15 4 19 9 10 8 9 8 7 8 11 17 10 19 2 4v49l-2-1 2 6v6h-3v-4h-2l-1-5-2 6-10 19-10 14-12 14-17 17-10 8-12 10-11 8-16 11-42 28-14 9-22 15-12 8-14 9-22 15-75 50-34 23-19 12-10 7-18 12-14 9-41 27-35 23-17 11-15 10-25 16-41 26-13 8-25 16-40 24-31 16-23 9-23 7-3 1v2l-2 1h-73l-1-2-28-8-52-20-29-13-30-15-19-10-29-15-42-22-64-33-50-26-34-17-27-12-19-7-10-3-9 1-13 5-16 8-22 13-11 7-20 13-17 11-13 8-16 9-15 8-8 3-12-8-11-11-8-16 1-7 10-14 10-9 16-12 16-10 14-9 16-11 22-14 26-14 17-8 18-6 13-2h16l15 2 21 6 21 8 29 14 36 18 65 34 39 20 35 18 23 12 39 20 29 15 23 11 27 11 18 6 23 5 15 2h21l21-4 18-6 23-10 22-13 23-14 19-12 17-11 15-10 16-10 30-20 16-10 15-10 22-14 16-10 10-7 12-8 14-9 12-8 19-12 15-10 14-9 129-86 19-13 14-9 31-21 36-24 19-13 12-8 18-13 14-12 10-9 1-2h2l2-4 9-11 7-11 2-8-1-12-6-12-8-8-8-4-10-2h-15l-20 3-20 6-29 12-15 8-25 15-13 9-18 12-20 13-17 12-33 22-16 11-33 22-13 9-27 18-16 11-84 56-12 9-14 9-20 8-21 6-23 3-33 2h-176l-40-1-50-4-33-5-43-8-36-9-20-6-13-7-7-8-3-6v-13l4-11 6-9 5-6 4-3h10l80 16 27 5 38 5 35 3 18 1 35 1h164l25-2 21-4 16-6 13-8 4-4h2l2-5 3-7v-12l-2-12-6-10-4-5-12-7-12-4-17-4-32-3-50-4-33-4-28-5-35-7-34-8-30-8-29-9-24-9-25-12-12-8-14-11-13-12-6-6v-2h-2l-7-8-9-9-7-8-15-14-13-10-17-11-21-10-18-6-27-6-19-3-36-3h-33l-32 3-22 4-28 7-32 11-29 12-33 14-58 26-36 16-25 12-50 23-21 9-21 7-5 1-9-6-5-6-3-1v-2h-3l-1-3v-36l13-7 14-8 29-14 41-20 28-13 42-19 32-14 23-10 29-12 27-11 38-13 24-6 22-4 38-4 16-1h38l34 3 28 4 28 7 20 7 19 8 16 8 13 8 14 10 22 18 4 1 8-13 9-10 11-10 14-10 19-9 18-4 9-1h39l8-7 6-8 13-12 14-9 16-8 13-5 16-4 16-1 16 2 19 4 13 5 11 5 5 2 5-1 4-4 6-9 12-12 10-7 14-8 15-6 19-5 11-1h12l7-2 5-12 9-30 13-47 7-27 4-12v-2l-25 5-19 3-22 2h-44l-22-3-23-6-19-7-21-10-13-8-12-9-11-9-19-19-10-13-13-21-12-25-10-27-6-25-4-24-2-21v-38l2-22 8-42 8-28 13-34 12-25 9-17 14-24 8-13 11-18 15-23 10-16 11-17 10-17 12-22 8-15 10-30 3-15v-19l4-19 6-12zm45 84-1 1-3 21-8 21-8 16-14 26-12 20-10 15-8 13-8 12-15 23-11 19-8 12-6 11-17 33-10 24-7 19-6 23-4 24-2 22v28l3 34 4 22 5 17 10 23 9 16 9 11 9 10 15 11 13 8 17 7 16 5 16 3 10 1h45l23-3 19-4 21-7 6-4 3-7 3-12 4-38 1-16v-56l-3-39-5-42-8-40-7-28-9-31-23-69-5-16-1-11 3-7 10-8 12-6 4-1h15l7 4 7 10 9 19 11 30 12 36 11 39 8 36 8 44 4 32 2 28 1 24v40l-2 41-2 26 2 9 10 5 18 6 11 1h17l13-3 19-8 15-9 11-9 6-5v-2l4-2 7-8 1-3h2l11-19 4-8 8-28 4-20 1-8 1-29-2-24-5-30-9-31-6-16-9-20-12-22-10-16-12-17-10-13-11-13-18-20-21-21-8-7-11-10-11-9-18-14-19-14-19-13-9-6-25-16-25-14-24-13-19-10-12-6zm26 805-16 5-10 5-16 13-9 10-11 14-9 10v2l-4 2-6 5h-6l-16-8-21-14-15-7-13-2-8-1-24 3-8 3-8 6-7 7-20 30-6 5-3 1-21-1-9-1h-33l-11 4-13 10-9 10-6 12 1 6 6 7 13 8 21 9 25 9 19 6 40 10 38 8 23 4 32 4 78 7 24 4 16 4 20 8 16 9 13 11 3 4h2l2 4 12 18 10 19 3 1 12-6 16-11 39-26 22-15 25-17 13-9 24-16 19-13 33-22 14-11 1-6h-2v-4h2v-2h-2l-1-6-10-22-7-10-7-8h-2v-2l-8-6-15-8-17-4h-23l-17 3-46 13-9-3-9-7-9-14-11-18-11-12-10-7-12-6-14-3h-9l-21-3-8-2z" fill="#FFDB6E"/>
<path transform="translate(0,1091)" d="m0 0 5 5 2 3-1 3-1-3-5-1z" fill="#FFDB6E"/>
<path transform="translate(763,1597)" d="m0 0h3v3h-3z" fill="#FFDB6E"/>
<path transform="translate(874,1599)" d="m0 0" fill="#FFDB6E"/>
<path transform="translate(8,1096)" d="m0 0" fill="#FFDB6E"/>
<path transform="translate(1599,1045)" d="m0 0" fill="#FFDB6E"/>
</svg>
