<?xml version="1.0" encoding="UTF-8"?>
<svg version="1.1" viewBox="0 0 1600 1600" width="1280" height="1280" xmlns="http://www.w3.org/2000/svg">
<path transform="translate(416,64)" d="m0 0h50l42 3 29 4 26 6 36 12 16 7 25 12 18 11 12 8 13 10 10 8 10 9 5 4 7 8 13 13 13 17 12 18 12 21 11 23 10 28 7 26 4 22 3 26 1 17v20l-3 39-4 24-6 24-9 29-8 16-1 1v8l11 18 15 30 12 29 7 19 4 11 1 4 5-3 7-8 11-14 14-15 1-2h2l2-4h2l3-16 1-22 4-32 9-45 7-26 10-27 11-23 11-20 10-15 8-11 13-16 8-8 7-8 13-12 16-12 15-10 21-12 19-9 36-12 27-6 32-4 28-2h43l34 2 43 4 34 5 27 5 37 8 37 10 25 8 18 6 19 10 8 7 4 8 1 4v14l-5 24-15 49-9 25-11 28-16 35-10 18-11 20-8 12-9 13-8 12-14 19-12 13-1 2h-2l-2 4-24 24-8 7-10 9-20 15-18 11-21 12-25 12-16 6-28 8-26 6-32 4-20 1h-26l-28-2-30-4-23-5-24-6-23-8-13-7-9-8-5-8-1-3v-12l6-15 9-10 7-4h9l22 6 15 5 15 4 17 4 25 4 30 3h39l27-3 29-6 24-8 18-8 26-14 21-14 11-9 10-9 13-12 14-15 7-8 7-9 7-10 8-11 15-24 13-24 8-16 8-17 8-19 11-30 6-18 5-18 2-10-73-18-36-7-45-6-28-3-47-3h-27l-30 2-24 3-25 6-20 6-18 8-15 8-14 10-14 12-8 7-9 11-12 15-11 18-13 27-13 36-6 21-5 20v5l10-4 16-10 17-11 19-12 27-15 15-8 16-8 31-15 30-13 37-15 36-12 22-7 23-5h14l10 5 7 9 4 8 1 3v16l-3 7-7 7-10 5-37 13-28 10-27 11-13 5-11 5-23 10-29 14-33 17-20 11-10 6-18 11-15 10-17 12-15 11-12 9-11 9-10 9-3 3h-2v2l-8 7-12 13-10 11-7 8-10 14-9 14-12 22-7 18-6 20-6 26-3 38 13 1 402 1 15 2 10 5 7 8 2 19v185l-1 18-3 7-7 6-16 4-9 1-34 1-1 12-8 33-8 41-11 50-7 35-6 27-10 48-9 40-8 38-6 28-8 37-10 38-6 12-6 5-7 2-11 1-490 1h-78l-24-2-6-5-7-15-5-16-12-52-13-62-11-51-10-44-10-48-8-38-18-88-5-24-1-1-10-1-24-1-21-3-5-3-6-9-2-6-1-7-1-71v-120l2-16 4-10 5-5 6-3 21-2 41-1 359-1 10-1-1-87-3-39-4-23-6-21-8-22-14-29-8-15-10-17-14-21-9-12-13-16-10-11-7-8-15-16-23-23-8-7-10-9-15-13-13-11-34-26-18-13-14-10-35-24-24-15-28-17-17-10-23-13-24-13-14-8-14-10-10-9-3-5-1-11 5-13 8-10 11-7 7-1 14 4 21 9 16 8 31 16 34 20 38 24 16 10 19 14 23 16 15 11 16 12 13 10 17 14 11 9 12 11 14 11 7 7 11 9 26 26 7 8 7 6v2l4 2 3 2 1-12 3-18 4-18 2-16 1-19v-15l-2-26-5-29-5-19-7-20-12-25-10-17-10-14-9-11-6-7-8-7-9-9-16-12-17-11-20-11-27-11-26-8-24-5-19-3-35-3-18-1h-21l-53 3-37 4-52 7-24 4-67 15-24 7-5 3 11 47 14 44 10 28 12 30 12 27 16 33 14 24 11 18 8 11 12 17 13 16 18 20 13 13 11 9 9 8 16 11 10 7 22 12 21 10 21 7 25 6 31 4 17 1h20l31-2 37-5 23-4 9-1 10 4 10 8 6 10 2 8v9l-2 7-7 9-5 4-12 5-15 4-24 4-44 4-30 1h-15l-33-2-21-3-23-5-20-6-25-10-23-11-25-15-18-13-16-13-14-12-8-8-7-6-7-8-8-8-9-11-11-13-12-16-15-22-14-22-13-23-15-29-14-30-13-32-16-44-16-52-8-32-6-32-1-9v-11l2-9 3-5 8-6 15-7 31-10 38-10 40-9 44-8 33-5 37-4 44-3zm-33 831v128h829l2-1 1-41 1-85-1-1zm325 191-187 1-67 1 4 17 9 42 21 97 10 46 12 57 13 62 11 53 3 9h518l5-3 4-13 7-28 10-49 7-32 11-51 14-65 15-70 13-57 4-13v-3l-365-1z" fill="#FFDB6E"/>
</svg>
