<?xml version="1.0" encoding="UTF-8"?>
<svg version="1.1" viewBox="0 0 1600 1600" width="1280" height="1280" xmlns="http://www.w3.org/2000/svg">
<path transform="translate(1313,447)" d="m0 0h249l5 2 1 1v123l-1 959-2 2-19 1h-227l-6-1-2-10-1-28v-981l1-63zm63 64-1 1v959l72 1h40l15-1 2-1-1-92v-866l-1-1z" fill="#FFDB6E"/>
<path transform="translate(225,127)" d="m0 0h183l22 2 7 3 4 5 3 13 3 33 1 6 6 1 48 2 22 2 9 2 6 7 1 5v28l-3 9-5 5-4 2-20 2-61 1 1 62 5 1 40 1 28 2 10 3 5 4 3 5 2 13v14l-2 8-4 6-5 4-8 3-8 1-67 1 1 117 1 17 3 7 7 8 8 10 12 17 12 22 8 19 8 26 3 18 1 14v18l-2 25-2 14-7 27-10 25-10 19-8 12-7 9-8 10-12 13-15 14-13 10-10 7-15 9-16 7-30 10-18 4-24 3h-40l-22-3-17-4-21-7-16-7-20-11-11-8-16-13-20-20-11-14-10-14-10-17-11-23-8-24-4-17-3-26v-27l2-20 4-20 7-21 9-21 12-20 8-12 13-16 6-8 1-10 1-289 1-70 4-13 9-8 9-2 19-1zm-33 64-2 2v323l-1 21-2 9-18 18-12 16-9 14-6 12-8 24-4 19-1 23 1 22 2 14 5 18 9 21 8 12 8 11 11 12 12 12 13 10 15 9 20 9 19 5 13 2 12 1h14l20-2 20-4 15-5 20-9 12-8 14-11 16-16 11-14 11-18 8-21 6-26 1-16v-19l-3-24-4-15-6-16-8-16-7-11-10-13-9-10-10-12-3-4-1-6-1-62v-246l-1-35z" fill="#FFDB6E"/>
<path transform="translate(993,735)" d="m0 0h252l2 2 1 795-2 2-14 1h-234l-5-1-2-10-1-28v-711l1-46zm63 64-1 5v667h127l2-1-1-85v-586z" fill="#FFDB6E"/>
<path transform="translate(862,894)" d="m0 0h29l34 1 2 1 1 5v632l-2 1-17 1h-231l-5-1-2-10-1-27v-203l1-395 1-3 2-1zm-126 65-1 1v511h127l2-1-1-77v-434z" fill="#FFDB6E"/>
<path transform="translate(354,991)" d="m0 0h251l3 4v538l-2 1-17 1h-232l-4-1-2-9-1-24v-179l1-328zm63 64-2 1v415h126l3-1-1-65v-350z" fill="#FFDB6E"/>
<path transform="translate(34,1119)" d="m0 0h251l3 4v410l-2 1-17 1h-234l-2-1-1-5v-362l1-46zm62 64-1 1v287h126l2-1v-286l-1-1z" fill="#FFDB6E"/>
<path transform="translate(256,287)" d="m0 0h33l25 1 5 3 1 3v279l2 9 16 9 11 8 11 10 10 13 8 16 4 12 1 6v31l-4 16-4 9-4 8-12 16-8 8-9 7-16 9-13 4-19 3h-16l-17-2-16-6-12-7-13-11-8-8-9-14-7-15-5-21v-25l3-14 7-17 8-11 7-9 8-7 11-8 16-9 2-6 1-227 1-57z" fill="#FFDB6E"/>
</svg>
