<?xml version="1.0" encoding="UTF-8"?>
<svg version="1.1" viewBox="0 0 1600 1600" width="1280" height="1280" xmlns="http://www.w3.org/2000/svg">
<path transform="translate(791,383)" d="m0 0h21l34 2 39 4 32 5 32 7 42 12 28 10 19 8 18 8 16 8 24 13 28 17 24 16 32 24 14 12 10 9 8 7 12 11 25 25 9 11 10 11 13 17 9 11 12 17 10 15 14 23 6 10 8 16 13 27 12 29 11 30 12 41 6 26 6 31 4 32 2 30v69l-3 40-4 28-12 54-10 33-9 26-11 27-10 22-8 16-15 26-11 18-7 10-18 26-12 16-11 13-11 12-7 8-11 12-18 18h-2l-2 4-8 7-12 11-14 11-8 7-22 16-20 13-21 13-27 15-30 15-39 16-33 11-36 10-31 7-41 8-12 1v2l2 1h-124v-1h-7-3l-1-1-1 2h-2l-1-5-48-10-47-12-27-8-34-13-26-11-31-15-28-16-22-14-11-8-14-10-16-13-11-9-15-13-9-9-8-7-15-15-7-8-8-8-7-8-12-14-11-14-13-18-18-27-15-25-13-24-13-27-13-32-9-25-12-40-8-36-6-38-3-29-1-19v-61l2-30 5-40 9-41 8-30 13-38 11-27 8-18 13-27 21-36 16-24 10-14 10-13 13-16 9-11 2-3h2l2-4 9-10 1-2h2l2-4 26-26 8-7 10-9 11-9 15-12 12-9 17-12 22-14 22-13 29-15 21-10 26-11 36-13 38-10 46-9 28-4 43-4zm-27 70-23 11-15 10-14 10-15 13-8 7-13 14-13 18-10 15-13 21-20 38-16 36-11 22v1l11 1h161l2-1v-209l-1-7zm69 1-1 19-1 61v136h161l10-1 1-4-12-28-8-19-12-25-12-22-15-24-11-16-8-10-9-10-19-19-10-8-16-12-18-10-17-8zm144 24 1 6 11 16 13 18 8 13 12 22 13 26 11 25 12 31 11 31 4 4 17 1h42l93-1 10-1-2-5-8-10-13-15-11-13-11-12-22-22-8-7-10-9-14-11-11-9-14-10-20-13-13-8-22-12-23-12-23-11-27-11zm-358 1-14 5-26 11-33 16-15 8-11 6-19 12-19 13-17 13-17 14-12 11-11 11-4 3v2l-4 2-4 4v2l-4 2v2l-4 2-7 8-2 4h-2l-9 11-12 13-10 11v2l-2 1 3 1 33 1h127l4-2 8-23 12-31 10-23 7-16 12-22 8-15 8-13 10-15 7-9 5-8 7-9v-5zm-299 257-5 8-13 27-14 37-12 40-7 30-6 33-6 41v6l1 1h223l2-24 4-50 3-30 9-62 7-41 3-15-65-1zm256 0-2 4-10 52-5 30-5 45-7 76-1 16 11 1h94l115-1 1-1v-219l-1-2-32-1zm257 0-2 2v221l5 1h152l60-1 3-1-1-20-4-52-5-47-7-49-5-29-5-21-2-4zm422-1-66 1-99 1-1 2 5 19 10 67 4 33 3 33 4 69h119l95-1 11-1 1-1v-8l-7-48-7-34-8-32-13-41-11-29-10-21-6-8-2-1zm-779 287-220 1 1 10 7 48 8 41 10 36 11 32 12 30 11 23 4 4 187-1 1-5-7-38-9-62-4-36-6-76-1-7zm71 1-1 5 3 42 7 68 6 44 8 46 4 17 2 1h189l2-1v-221l-1-1zm284 0v223l174 1 18-1 2-7 12-68 7-56 6-59 2-32-1-1zm286 0-2 2v14l-4 64-4 36-10 68-6 31-1 8h187l6-5 8-17 6-13 14-38 10-33 6-24 9-45 3-19 2-20v-8l-4-1zm-749 288-7 1 3 7 11 12 9 11 9 10 1 2h2l2 4 30 30 8 7 13 11 22 18 15 11 21 14 27 16 27 14 10 5 26 12 11 5 13 5h2l-1-5-12-17-14-20-12-21-9-16-11-21-16-38-18-48-4-8-7-1-30 1h-94zm463 1v210l1 7 6-1 12-5 23-14 15-11 13-11 18-18 9-11 9-12 12-18 9-15 15-27 8-16 10-22 8-22 5-12v-2zm242 0-5 10-6 16-10 28-11 27-7 15-11 21-21 36-8 12-10 13-9 14 3 1 18-6 15-8 23-10 22-11 24-14 16-10 19-13 18-13 13-10v-2l4-2 15-13 7-6v-2h2v-2h2l6-7 6-5 7-8 10-10 9-11 8-9 9-11 4-8-1-1-34-1zm-371 0-108 1 3 10 10 24 15 33 13 23 11 19 12 19 12 15 7 9 14 15 11 11 10 8 14 10 22 12 15 7h4v-209l-1-7z" fill="#FFDB6E"/>
<path transform="translate(783)" d="m0 0h38l-1 2-2 1 9 10 7 7 9 11 8 13 6 14 4 14 1 6v28l-4 20-7 16-9 16-12 16-9 11-14 20-7 14v8l3 10 7 12 8 11 10 13 3 6 1 11-3 9-6 9-9 8-7 3-13-1-11-4-11-8-10-10-10-14-8-15-5-14-2-10v-26l4-24 6-15 11-19 11-14 1-2h2l2-4 10-13 7-11 4-6 3-9v-10l-2-8-6-11-11-14-10-13-2-7v-9l3-9 4-7 7-8z" fill="#FFDB6E"/>
<path transform="translate(1007)" d="m0 0h38l-1 2-2 1 9 10 11 12 10 14 9 19 4 14 1 5v31l-4 17-9 20-8 14-16 21-13 18-9 14-4 9 1 9 4 10 9 13 10 13 6 8 3 8v10l-4 10-7 9-8 6-6 2h-10l-10-3-9-5-12-11-8-9-7-11-8-16-5-15-1-5v-26l4-24 5-14 9-16 10-14 11-13 8-11 10-15 3-7 1-5v-8l-2-9-6-11-10-13-11-14-2-7v-8l3-10 5-8 7-8z" fill="#FFDB6E"/>
<path transform="translate(559)" d="m0 0h38l-1 2h-2l4 6 10 10 7 8 9 13 8 16 5 16 1 6v29l-4 20-12 25-7 11-14 18-11 15-9 13-5 10-1 6 3 12 7 12 10 13 9 12 3 7 1 11-4 11-6 8-7 6-8 3h-8l-13-3-11-7-13-13-10-14-8-16-6-18-1-6v-25l3-19 5-15 12-22 9-12 4-6h2l2-4 10-13 11-17 3-7 1-10-2-9-7-12-8-10-13-17-2-6v-10l3-9 6-10 6-7z" fill="#FFDB6E"/>
<path transform="translate(701,1597)" d="m0 0h5l7 2v1h-15v-2z" fill="#FFDB6E"/>
<path transform="translate(735,1599)" d="m0 0 2 1z" fill="#FFDB6E"/>
</svg>
