<?xml version="1.0" encoding="UTF-8"?>
<svg version="1.1" viewBox="0 0 1600 1600" width="1280" height="1280" xmlns="http://www.w3.org/2000/svg">
<path transform="translate(786,64)" d="m0 0h22l14 3 13 7 10 9 9 11 7 14 3 14v11l-3 16-6 11-9 11-10 8-2 5-1 10-1 79v73l2 8 32 16 12 8 12 11 4 4v2h2l9 13 11 21 6 16 5 18 11 3 90 12 97 14 80 12 50 8 10 3 5 4 7 11 15 40 23 69 13 37 15 43 11 31 10 29 15 44 15 43 12 34 17 49 21 60 17 49 15 43 23 67 30 86 4 16 2 16v10l-2 13-4 13-7 16-8 16-12 16-8 10h-2l-2 4-8 8-14 11-11 9-17 11-27 14-27 11-28 8-30 7-25 4-33 3h-56l-32-3-28-5-30-8-26-9-20-9-19-10-18-11-17-13-16-15-8-8-8-10-9-13-8-14-7-15-6-19-2-13v-15l4-20 7-21 5-14 16-47 10-29 15-43 15-44 11-31 10-29 12-35 7-20 12-34 15-43 17-49 15-43 18-52 15-43 12-36 13-36 10-28 3-10v-4l-21-3-53-7-71-10-62-9-60-9-11-2h-6l-11 19-9 12-12 14-12 10-14 8-16 7-13 4-19 3h-30l-17-3-18-6-15-8-13-10-15-15-12-17-10-19-8-21-4-13v-2l-16-1-36-4-81-12-129-18-8-1 6 15 12 35 9 26 15 43 12 35 10 29 16 47 15 43 14 40 15 43 21 60 18 52 17 49 19 55 17 48 12 34 7 22 3 14 1 8v15l-2 13-5 16-12 25-10 14-8 10-12 13-11 10-9 7-15 11-17 10-17 9-29 12-23 7-38 9-25 4-35 3h-51l-33-3-29-5-30-8-26-9-18-8-16-8-17-10-14-10-10-8-13-12-11-11-13-17-9-15-9-19-6-19-2-13v-14l4-20 9-27 29-85 14-40 11-33 12-33 10-30 7-20 15-42 8-24 12-34 15-42 7-21 15-43 17-50 10-28 12-34 10-30 15-43 17-49 9-21 8-13 5-5 4-3 13 1 59 7 60 8 202 29h8l4-5 7-13 8-11 12-14 11-9 16-9 23-11 4-6v-162l-3-8-15-15-7-10-5-11-2-12 1-12 3-12 7-14 11-13 10-9 12-6zm0 352-12 4-12 7-12 11-8 14-4 10-2 8v19l4 14 6 11 8 10 10 9 12 6 15 4h18l11-3 11-6 11-8 7-8 7-11 5-12 1-4v-19l-4-17-7-13-8-10-11-8-10-5-11-3zm-435 101-3 5-15 45-15 41-5 15-11 30-11 33-13 38-14 40-12 34-10 29-13 38-30 86-17 50-15 44-12 34-13 36v4h419l-5-16-13-37-10-30-28-82-10-28-10-29-16-46-15-43-17-49-15-43-10-28-10-29-12-35-14-41-22-64-1-2zm895 127-14 41-14 40-12 35-12 34-14 40-10 29-13 38-15 43-17 49-30 86-17 50-16 47-8 22-9 26-7 19v4h418l-1-8-13-36-27-80-7-20-10-29-14-41-12-34-17-49-30-86-12-33-11-33-15-43-20-59-15-42-5-10zm-1107 538-5 1 6 12 6 8h2l2 4 12 12h2v2l13 10 20 12 27 13 25 9 26 6 24 4 32 3h43l31-3 24-4 21-5 26-9 17-8 17-9 17-11 13-10 6-5v-2l4-2 10-11 4-6v-8l-4-2h-361l-28-1zm897 128-6 1 6 12 8 10 16 16 13 10 20 12 27 13 25 9 26 6 24 4 33 3h41l32-3 24-4 25-6 24-9 32-16 17-11 12-9 7-6v-2l4-2 7-8 6-8 1-2v-6l-1-2-3-1h-362l-28-1z" fill="#FFDB6E"/>
</svg>
