<?xml version="1.0" encoding="UTF-8"?>
<svg version="1.1" viewBox="0 0 1600 1600" width="1280" height="1280" xmlns="http://www.w3.org/2000/svg">
<path transform="translate(724,49)" d="m0 0h145l36 2 24 3 22 5 18 6 18 8 19 10 19 12 12 9 14 12 15 14 27 27 3 2v2l4 2 9 9 14 11 17 12 16 9 16 7 18 6 20 4 9 1h34l25-4 15-4 25-10 18-10 14-10 16-13 6-8 11-24 8-13 6-7 13-10 13-6 12-3 7-1h15l18 4 16 8 11 9 9 11 8 15 4 14 1 6v25l-3 17-5 17-8 16-10 16-10 14-11 13-20 20-8 7-15 12-24 16-14 8-17 8-27 9-27 6-24 4-14 2 9 19 13 34 12 30 11 28 13 32 42 105 13 32 28 70 11 27 12 31 18 45 26 66 6 15 11 28 5 6 24 13 5 4 2 5 1 6 1 18v28l-2 24-3 15-6 16-9 17-9 13-7 9-8 7-10 8-14 8-16 6-25 5-24 2-21 1-70 1h-210l-36-1-28-2-18-4-17-7-15-9-14-12-8-8-10-14-8-14-6-15-4-13-3-17-1-11v-52l3-9 5-5 8-4 18-8 5-6 5-14 16-42 10-25 13-32 12-31 11-27 22-56 11-27 15-37 18-45 13-32 11-28 8-20 13-32 22-56 12-29 9-23 5-8h-57l-31-4-24-5-30-10-18-8-18-10-11-8-22-18-6-4 1 9 3 24v13l-2 21-7 34-5 15-10 21-11 18-11 14-9 10-12 13-15 11-19 8h-2v2l4 2 11 9 14 12 11 9 11 11 11 14 12 18 12 23 8 21 6 24 2 12 1 15v15l-2 21-5 24-6 20-7 16-11 20-10 14-9 11-15 15-11 10-14 9-9 6-1 38-1 288 28 1 34 3 18 4 16 6 19 11 9 7 6 5 7 8 7 10 8 16 9 24 6 21 6 31v4h13l26 2 20 4 16 7 12 7 13 10 12 12 10 15 12 25 7 21 6 28 4 30v26l-4 6-5 4-4 1-16 1-51 1h-734l-18-1-7-2-5-6-3-9-1-6v-13l2-15 10-50 7-21 8-17 10-15 9-10 11-10 16-10 14-7 14-4 12-2 36-2 3-2 5-30 6-24 6-18 8-16 10-15 4-5h2l2-4 11-10 18-12 16-7 17-4 21-2 46-2-1-26v-247l1-48-7-8-14-10-13-12-12-11-11-13-11-16-8-13-13-27-7-24-3-15-1-8v-40l3-18 6-24 10-24 9-16 14-21 14-17 13-13 17-13 10-8 6-4-16-8-6-4-11-9-15-14-9-11-10-14-9-15-11-23-7-19-6-23-2-15v-31l3-17v-11l-12 11-11 8-10 8-21 12-26 11-19 6-34 7-25 3-30 2-27 1 7 14 13 33 15 37 26 65 11 27 14 36 20 50 15 37 13 32 10 26 10 24 8 21 7 16 11 29 8 21 6 16 10 25 11 26 10 26 2 5 5 2 26 13 3 4 2 9v56l-3 23-5 18-8 16-10 16-9 10-1 2h-2l-2 4h-2v2h-2v2l-14 10-10 6-16 6-20 4-20 2-18 1-37 1h-254l-37-1-25-2-16-3-15-5-16-8-13-10-14-14-10-14-8-14-5-11-5-17-3-18-1-14v-36l2-18 3-6 10-6 13-5 7-6 10-22 8-21 11-27 14-36 17-43 32-80 15-37 11-28 6-15 11-27 10-25 17-43 10-25 11-27 10-26 12-30 10-24 6-17 6-14v-1l-27-2-26-4-27-8-19-8-23-12-16-11-14-11-13-11-12-11-8-8-7-8-13-16-7-10-9-15-9-20-5-19-2-14v-21l5-18 7-14 6-8 11-11 11-7 12-5 15-3h13l14 2 11 4 12 6 11 9 7 8 11 21 6 13 6 8 10 9 12 9 19 12 22 10 24 8 26 4h34l26-4 20-6 22-10 16-10 12-9 10-8 20-18 33-33 8-7 10-9 17-13 21-13 16-8 15-7 16-6 23-6 27-4zm21 50-38 2-25 3-25 6-15 5-27 14-12 8-12 9-10 9-12 11-25 25-8 7-4 5-11 9-11 10-12 8-13 9-25 13-28 10-20 5-18 3-22 2h-26l-22-2-25-5-19-6-21-9-16-8-18-11-13-10-14-12-10-10-7-10-5-11-6-17-8-9-11-4h-8l-8 6-6 7-3 10v20l3 14 8 16 8 12 11 13 7 8 11 11 11 9 10 9 16 11 14 8 15 7 18 6 16 4 21 3 30 2h101l22-1 22-3 22-5 14-5 16-8 16-9 13-10 11-9 10-9 8-7 22-22 2-1v-2l4-2 11-11 11-9 12-10 14-10 24-14 19-9 27-9 25-5 26-3h44l29 3 26 6 22 8 18 8 24 14 17 12 10 8 13 12 8 7 14 14h2v2l8 7 14 14 8 7 16 13 17 12 17 9 18 7 20 5 22 3 30 2h106l25-2 22-4 20-5 19-8 17-9 16-11 12-9 11-10 8-7 14-14v-2h2l11-15 8-14 6-15 2-14v-13l-4-12-4-5-8-4-14-2-5 3-7 10-5 13-9 15-9 11-10 10-8 7-11 9-15 10-10 6-22 10-30 10-18 4-18 3-26 2h-15l-27-2-21-4-17-5-24-10-20-10-15-10-14-11-15-14-34-34h-2v-2l-8-7-14-12-20-15-19-11-23-11-22-7-22-4-21-2-39-2zm45 101-18 2-21 5-17 7-14 8-13 10-11 9-9 9-11 15-10 18-8 18-4 13-3 19-1 12v11l2 21 5 21 7 16 10 18 9 11 14 15 3 1v2l11 9 14 9 16 8 18 6 16 4 8 1h26l20-3 17-4 17-7 15-8 17-12 7-6 7-8 10-11 7-11 10-19 6-16 5-30v-28l-4-25-5-16-8-16-8-14-11-14-14-14-13-10-15-9-17-8-20-6-11-2-11-1zm458 218-6 18-7 18-10 25-11 28-26 65-14 34-12 31-12 29-15 38-21 52-24 60-15 38-14 36-8 19-14 34-2 6h423l-3-10-10-27-11-27-36-91-27-67-11-28-64-160-19-48-11-28-9-24-9-21zm-900 1-3 3-8 25-10 27-14 36-14 34-22 55-19 47-13 33-46 115-11 28-38 95-9 21-4 9v2h422l2-1-3-10-12-28-16-41-11-27-13-33-50-125-11-28-17-42-12-30-11-28-12-30-19-48-8-20-12-28-5-11zm438 131-19 3-22 6-17 8-20 13-12 12-7 6-11 14-8 13-8 16-6 16-4 18-2 18v12l2 20 5 21 7 16 11 21 13 16 14 14 13 10 22 12 19 7 22 5 11 1h20l26-4 17-5 16-7 14-8 13-10 10-9 9-11 8-10 8-13 8-16 4-10 4-21 1-7v-37l-4-21-7-20-11-21-10-14-11-12-7-7-15-11-16-9-16-7-17-5-12-2-11-1zm-37 344v304l15 1 71 1 14-1v-304l-1-1-13 1-18 2h-38l-26-3zm-642 106-8 1-1 1v21l2 15 7 19 8 13 11 12 14 9 12 5 11 2 142 1h212l26-2 14-5 10-6 10-8 9-12 7-14 4-14 3-17v-17l-1-2-4-1-14-1zm900 0-7 1-1 1v29l4 16 4 11 7 11 10 11 10 7 12 7 15 4 207 1h145l21-1 12-2 13-5 11-7 7-6 11-15 8-20 4-20v-17l-2-5-13-1zm-333 249-28 1-13 2-10 5-13 9-8 10-8 14-5 11-6 22-5 21v4l14 1h424l5-2-1-7-7-28-7-20-8-15-9-11-9-7-12-6-8-2-10-1-40-1zm-137 151-40 1-15 2-12 5-10 9-9 11-9 16-7 19-6 22-1 12 3 1 215 1h515l7-1 1-1v-8l-7-30-6-16-8-15-7-9-5-6-8-6-9-4-12-2-23-1z" fill="#FFDB6E"/>
<path transform="translate(853,607)" d="m0 0 7 1 13 13 8 7 10 13 1 4-8 8-8 7-21 21-13 10-3 3h-2l1 5 13 15 16 16 8 7 10 10 6 11-6 8-11 10-5 6-10 7-6-2-11-8-12-13-12-12-7-8-9-7-7 2-11 9-22 22-9 11-9 7-4-2-5-3-8-6-9-10-5-5-3-5 1-7 9-10 22-22 8-7 10-11h2l-1-5-7-8-6-5-7-8-7-7-4-3v-2h-2v-2l-4-2-11-10-5-8 6-8 12-14 4-2 2-5 6-5 7 1 6 4 7 7v2h2l14 16 6 5 6 7 12 9 5-1 16-15 8-7 10-10 11-14z" fill="#FFDB6E"/>
<path transform="translate(853,285)" d="m0 0 6 1 9 5 5 6 10 8 7 7-1 7-7 9-18 18-1 2h-2l-2 4h-2l-2 4-10 10-8 7-6 7-16 14-7 8-12 11-11 9-6 5-6-1-12-7-10-8-10-9-27-27-5-7 1-5 4-6 7-7 8-6 1-2h2l1-3 8-5 6 1 8 7 13 16 5 4 4-1 3-3h2l2-4 9-10 15-15 2-3h2l1-3 5-5h2v-2l8-7 4-5 7-6 5-6z" fill="#FFDB6E"/>
</svg>
